<svg width="24" height="24" viewBox="0 0 24 24" fill="none" xmlns="http://www.w3.org/2000/svg">
<circle cx="12" cy="12" r="12" fill="#003DA5"/>
<path d="M10.8062 18.294C10.8248 18.288 10.8432 18.2813 10.8614 18.2739C10.9589 18.2343 11.0476 18.1757 11.1225 18.1016L11.1233 18.1008L16.3946 12.8303L16.3955 12.8294C16.5448 12.6786 16.6285 12.475 16.6285 12.2628C16.6285 12.0506 16.5448 11.847 16.3955 11.6962L16.3946 11.6953L11.1233 6.42322L11.1234 6.42318L11.1195 6.4195C10.968 6.27422 10.7661 6.19312 10.5562 6.19312C10.3463 6.19312 10.1444 6.27422 9.99286 6.4195L9.99281 6.41946L9.98897 6.42331C9.91441 6.49796 9.85551 6.58674 9.81571 6.68445C9.77609 6.78171 9.7562 6.88586 9.75718 6.99086M10.8062 18.294C10.7267 18.3197 10.6435 18.3328 10.5597 18.3327C10.5579 18.3327 10.556 18.3327 10.5541 18.3327L10.5562 18.0843C10.551 18.0844 10.5459 18.0844 10.5407 18.0843H10.3268H10.3062V18.0827V18.0275C10.2531 18.0011 10.2046 17.9662 10.1627 17.924M10.8062 18.294V18.3307L10.5598 18.3343C10.4532 18.3358 10.3475 18.3158 10.2489 18.2757C10.1502 18.2355 10.0606 18.1759 9.98548 18.1004L10.1627 17.924M10.8062 18.294L10.1627 17.1425C10.1111 17.1937 10.0702 17.2546 10.0423 17.3216C10.0144 17.3887 10 17.4606 10 17.5333C10 17.6059 10.0144 17.6778 10.0423 17.7449C10.0702 17.812 10.1111 17.8728 10.1627 17.924M9.75718 6.99086C9.75717 6.99038 9.75717 6.98989 9.75717 6.9894L10.0072 6.98954L9.75719 6.99233C9.75718 6.99184 9.75718 6.99135 9.75718 6.99086ZM9.75718 6.99086C9.75731 7.096 9.7782 7.20009 9.81864 7.29715C9.85917 7.39443 9.91854 7.48272 9.99334 7.55695C9.99352 7.55713 9.9937 7.55731 9.99388 7.55749L14.6894 12.2622L9.98654 16.9651C9.98639 16.9653 9.98624 16.9654 9.9861 16.9656C9.91135 17.0399 9.85201 17.1282 9.8115 17.2256C9.7709 17.3231 9.75 17.4276 9.75 17.5333C9.75 17.6389 9.7709 17.7435 9.8115 17.841C9.85209 17.9385 9.91158 18.027 9.98654 18.1014L10.1627 17.924M10.5562 18.0827L10.5562 18.0837L10.5562 18.0827Z" fill="white" stroke="#003DA5" stroke-width="0.5"/>
</svg>
