<svg width="20" height="20" viewBox="0 0 20 20" fill="none" xmlns="http://www.w3.org/2000/svg">
<path d="M1.59301 19.0003C1.45653 18.998 1.32622 18.9431 1.22932 18.8469C1.17329 18.7908 1.13099 18.7226 1.10574 18.6474C1.08048 18.5723 1.07294 18.4923 1.08372 18.4137L1.84586 12.769C1.86019 12.6575 1.91145 12.5539 1.99145 12.4748L12.2791 2.18902C12.6462 1.81482 13.0838 1.51708 13.5667 1.31301C14.0495 1.10893 14.568 1.00256 15.0922 1.00005C15.6164 0.997529 16.136 1.09891 16.6207 1.29835C17.1055 1.49778 17.546 1.7913 17.9167 2.16195C18.2874 2.5326 18.581 2.97304 18.7804 3.45781C18.9799 3.94258 19.0814 4.46208 19.0789 4.98628C19.0764 5.51048 18.9701 6.02901 18.7661 6.51188C18.5621 6.99476 18.2644 7.43242 17.8902 7.79958L7.60201 18.0848C7.55486 18.1336 7.49835 18.1724 7.43586 18.1989C7.37337 18.2253 7.30618 18.2389 7.23832 18.2388C7.10135 18.2374 6.97044 18.1821 6.87403 18.0848L2.73082 13.9404L2.19816 17.8781L4.92555 17.5102C4.99297 17.501 5.06154 17.5053 5.12731 17.5227C5.19309 17.54 5.25478 17.5703 5.30884 17.6116C5.3629 17.6529 5.40827 17.7045 5.44233 17.7634C5.4764 17.8223 5.49849 17.8873 5.50734 17.9548C5.51644 18.0222 5.51215 18.0907 5.49472 18.1565C5.47729 18.2222 5.44706 18.2839 5.40576 18.3379C5.36447 18.392 5.31291 18.4373 5.25405 18.4714C5.19519 18.5055 5.13019 18.5276 5.06276 18.5366L1.66131 18.9967C1.63868 18.9998 1.61584 19.001 1.59301 19.0003ZM14.9412 5.91221L5.55347 15.3005L7.24191 16.9889L16.6302 7.60125L14.9412 5.91221ZM12.4786 3.45565L3.09032 12.8409L4.8177 14.5665L14.206 5.18064L12.4786 3.45325V3.45565ZM15.0868 2.0584C14.4047 2.05876 13.7439 2.29596 13.2174 2.72946L17.3516 6.86368C17.8164 6.30069 18.0548 5.5847 18.0203 4.85542C17.9857 4.12614 17.6807 3.4359 17.1646 2.9194C16.8922 2.64598 16.5683 2.42914 16.2117 2.28138C15.8551 2.13361 15.4728 2.05783 15.0868 2.0584Z" fill="#003DA5" stroke="#003DA5" stroke-width="0.25"/>
</svg>
