<svg width="26" height="26" viewBox="0 0 26 26" fill="none" xmlns="http://www.w3.org/2000/svg">
<path d="M13.0008 25.125H13.0009C16.2153 25.1212 19.2969 23.8426 21.5697 21.5697C23.8426 19.2969 25.1212 16.2153 25.125 13.0009V13.0008C25.1252 10.6026 24.4142 8.25828 23.0819 6.26421C21.7497 4.27015 19.856 2.71593 17.6404 1.79812C15.4248 0.880308 12.9868 0.640125 10.6347 1.10794C8.28264 1.57576 6.12209 2.73058 4.42633 4.42633C2.73058 6.12209 1.57576 8.28264 1.10794 10.6347C0.640125 12.9868 0.880307 15.4248 1.79812 17.6404C2.71593 19.856 4.27015 21.7497 6.26421 23.0819C8.25828 24.4142 10.6026 25.1252 13.0008 25.125ZM14.3707 19.0126L14.3711 19.013C14.4342 19.0755 14.509 19.1249 14.5913 19.1584C14.6343 19.1759 14.6789 19.1888 14.7244 19.1971V19.2077L14.8476 19.2095C14.9374 19.2108 15.0265 19.194 15.1096 19.1601C15.1926 19.1263 15.268 19.0762 15.3312 19.0127C15.3944 18.9499 15.4445 18.8753 15.4787 18.7932C15.513 18.7109 15.5306 18.6226 15.5306 18.5335C15.5306 18.4444 15.513 18.3561 15.4787 18.2738C15.4445 18.1916 15.3943 18.1169 15.3311 18.0542C15.3311 18.0541 15.331 18.0541 15.331 18.054L10.5395 13.2625L15.3237 8.46891C15.3238 8.46883 15.3239 8.46876 15.324 8.46869C15.3872 8.40602 15.4373 8.33145 15.4716 8.24929L15.3562 8.20122L15.4716 8.24929C15.5057 8.16726 15.5234 8.07928 15.5234 7.99042C15.5243 7.90181 15.5076 7.8139 15.4741 7.73183C15.4406 7.64953 15.391 7.57474 15.3282 7.51187L15.3282 7.51185L15.3262 7.50996C15.1979 7.38699 15.0271 7.31833 14.8494 7.31833C14.6717 7.31833 14.5008 7.38699 14.3725 7.50996L14.3725 7.50994L14.3706 7.51182L9.09938 12.7839L9.09894 12.7843C8.97282 12.9117 8.90206 13.0837 8.90206 13.263C8.90206 13.4423 8.97282 13.6143 9.09894 13.7417L9.09939 13.7422L14.3707 19.0126ZM7.01683 4.04414C8.78811 2.86079 10.8705 2.22926 13.0007 2.2294C15.8562 2.23316 18.5936 3.36926 20.6126 5.38853C22.6316 7.40783 23.7673 10.1454 23.7706 13.0009C23.7704 15.1311 23.1386 17.2134 21.955 18.9845C20.7714 20.7556 19.0891 22.136 17.121 22.951C15.1529 23.7661 12.9873 23.9792 10.898 23.5635C8.80873 23.1478 6.88967 22.1218 5.38348 20.6154C3.8773 19.109 2.85164 17.1898 2.4362 15.1005C2.02077 13.0112 2.23422 10.8456 3.04957 8.87755C3.86491 6.90954 5.24553 5.2275 7.01683 4.04414Z" fill="#003DA5" stroke="#003DA5" stroke-width="0.25"/>
</svg>
