<svg width="264" height="35" viewBox="0 0 264 35" fill="none" xmlns="http://www.w3.org/2000/svg">
<rect width="264" height="35" rx="17.5" fill="#003DA5"/>
<path d="M37.2878 23.128C36.4344 23.128 35.6184 23 34.8398 22.744C34.0611 22.4773 33.4478 22.136 32.9998 21.72L33.5918 20.472C34.0184 20.8453 34.5624 21.1547 35.2238 21.4C35.8851 21.6453 36.5731 21.768 37.2878 21.768C37.9384 21.768 38.4664 21.6933 38.8718 21.544C39.2771 21.3947 39.5758 21.192 39.7678 20.936C39.9598 20.6693 40.0558 20.3707 40.0558 20.04C40.0558 19.656 39.9278 19.3467 39.6718 19.112C39.4264 18.8773 39.1011 18.6907 38.6958 18.552C38.3011 18.4027 37.8638 18.2747 37.3838 18.168C36.9038 18.0613 36.4184 17.9387 35.9278 17.8C35.4478 17.6507 35.0051 17.464 34.5998 17.24C34.2051 17.016 33.8851 16.7173 33.6398 16.344C33.3944 15.96 33.2718 15.4693 33.2718 14.872C33.2718 14.296 33.4211 13.768 33.7198 13.288C34.0291 12.7973 34.4984 12.408 35.1278 12.12C35.7678 11.8213 36.5784 11.672 37.5598 11.672C38.2104 11.672 38.8558 11.7573 39.4958 11.928C40.1358 12.0987 40.6904 12.344 41.1597 12.664L40.6318 13.944C40.1518 13.624 39.6451 13.3947 39.1118 13.256C38.5784 13.1067 38.0611 13.032 37.5598 13.032C36.9304 13.032 36.4131 13.112 36.0078 13.272C35.6024 13.432 35.3038 13.6453 35.1118 13.912C34.9304 14.1787 34.8398 14.4773 34.8398 14.808C34.8398 15.2027 34.9624 15.5173 35.2078 15.752C35.4638 15.9867 35.7891 16.1733 36.1838 16.312C36.5891 16.4507 37.0318 16.5787 37.5118 16.696C37.9918 16.8027 38.4718 16.9253 38.9518 17.064C39.4424 17.2027 39.8851 17.384 40.2798 17.608C40.6851 17.832 41.0104 18.1307 41.2558 18.504C41.5011 18.8773 41.6238 19.3573 41.6238 19.944C41.6238 20.5093 41.4691 21.0373 41.1597 21.528C40.8504 22.008 40.3704 22.3973 39.7198 22.696C39.0798 22.984 38.2691 23.128 37.2878 23.128ZM49.0013 23V21.208L48.9213 20.872V17.816C48.9213 17.1653 48.7293 16.664 48.3453 16.312C47.9719 15.9493 47.4066 15.768 46.6493 15.768C46.1479 15.768 45.6573 15.8533 45.1773 16.024C44.6973 16.184 44.2919 16.4027 43.9613 16.68L43.3213 15.528C43.7586 15.176 44.2813 14.9093 44.8893 14.728C45.5079 14.536 46.1533 14.44 46.8253 14.44C47.9879 14.44 48.8839 14.7227 49.5133 15.288C50.1426 15.8533 50.4573 16.7173 50.4573 17.88V23H49.0013ZM46.2173 23.096C45.5879 23.096 45.0333 22.9893 44.5533 22.776C44.0839 22.5627 43.7213 22.2693 43.4653 21.896C43.2093 21.512 43.0813 21.08 43.0813 20.6C43.0813 20.1413 43.1879 19.7253 43.4013 19.352C43.6253 18.9787 43.9826 18.68 44.4733 18.456C44.9746 18.232 45.6466 18.12 46.4893 18.12H49.1773V19.224H46.5533C45.7853 19.224 45.2679 19.352 45.0013 19.608C44.7346 19.864 44.6013 20.1733 44.6013 20.536C44.6013 20.952 44.7666 21.288 45.0973 21.544C45.4279 21.7893 45.8866 21.912 46.4733 21.912C47.0493 21.912 47.5506 21.784 47.9773 21.528C48.4146 21.272 48.7293 20.8987 48.9213 20.408L49.2253 21.464C49.0226 21.9653 48.6653 22.3653 48.1533 22.664C47.6413 22.952 46.9959 23.096 46.2173 23.096ZM55.3675 23L51.6555 14.52H53.2555L56.5515 22.2H55.7835L59.1435 14.52H60.6475L56.9355 23H55.3675ZM65.6226 23.096C64.716 23.096 63.916 22.9093 63.2226 22.536C62.54 22.1627 62.0066 21.6507 61.6226 21C61.2493 20.3493 61.0626 19.6027 61.0626 18.76C61.0626 17.9173 61.244 17.1707 61.6066 16.52C61.98 15.8693 62.4866 15.3627 63.1266 15C63.7773 14.6267 64.508 14.44 65.3186 14.44C66.14 14.44 66.8653 14.6213 67.4946 14.984C68.124 15.3467 68.6146 15.8587 68.9666 16.52C69.3293 17.1707 69.5106 17.9333 69.5106 18.808C69.5106 18.872 69.5053 18.9467 69.4946 19.032C69.4946 19.1173 69.4893 19.1973 69.4786 19.272H62.2626V18.168H68.6786L68.0546 18.552C68.0653 18.008 67.9533 17.5227 67.7186 17.096C67.484 16.6693 67.1586 16.3387 66.7426 16.104C66.3373 15.8587 65.8626 15.736 65.3186 15.736C64.7853 15.736 64.3106 15.8587 63.8946 16.104C63.4786 16.3387 63.1533 16.6747 62.9186 17.112C62.684 17.5387 62.5666 18.0293 62.5666 18.584V18.84C62.5666 19.4053 62.6946 19.912 62.9506 20.36C63.2173 20.7973 63.5853 21.1387 64.0546 21.384C64.524 21.6293 65.0626 21.752 65.6706 21.752C66.172 21.752 66.6253 21.6667 67.0306 21.496C67.4466 21.3253 67.8093 21.0693 68.1186 20.728L68.9666 21.72C68.5826 22.168 68.1026 22.5093 67.5266 22.744C66.9613 22.9787 66.3266 23.096 65.6226 23.096ZM81.2044 23V21.208L81.1244 20.872V17.816C81.1244 17.1653 80.9324 16.664 80.5484 16.312C80.175 15.9493 79.6097 15.768 78.8524 15.768C78.351 15.768 77.8604 15.8533 77.3804 16.024C76.9004 16.184 76.495 16.4027 76.1644 16.68L75.5244 15.528C75.9617 15.176 76.4844 14.9093 77.0924 14.728C77.711 14.536 78.3564 14.44 79.0284 14.44C80.191 14.44 81.087 14.7227 81.7164 15.288C82.3457 15.8533 82.6604 16.7173 82.6604 17.88V23H81.2044ZM78.4204 23.096C77.791 23.096 77.2364 22.9893 76.7564 22.776C76.287 22.5627 75.9244 22.2693 75.6684 21.896C75.4124 21.512 75.2844 21.08 75.2844 20.6C75.2844 20.1413 75.391 19.7253 75.6044 19.352C75.8284 18.9787 76.1857 18.68 76.6764 18.456C77.1777 18.232 77.8497 18.12 78.6924 18.12H81.3804V19.224H78.7564C77.9884 19.224 77.471 19.352 77.2044 19.608C76.9377 19.864 76.8044 20.1733 76.8044 20.536C76.8044 20.952 76.9697 21.288 77.3004 21.544C77.631 21.7893 78.0897 21.912 78.6764 21.912C79.2524 21.912 79.7537 21.784 80.1804 21.528C80.6177 21.272 80.9324 20.8987 81.1244 20.408L81.4284 21.464C81.2257 21.9653 80.8684 22.3653 80.3564 22.664C79.8444 22.952 79.199 23.096 78.4204 23.096ZM87.9349 23.096C87.2309 23.096 86.5589 23 85.9189 22.808C85.2895 22.616 84.7935 22.3813 84.4309 22.104L85.0709 20.888C85.4335 21.1333 85.8815 21.3413 86.4149 21.512C86.9482 21.6827 87.4922 21.768 88.0469 21.768C88.7615 21.768 89.2735 21.6667 89.5829 21.464C89.9029 21.2613 90.0629 20.9787 90.0629 20.616C90.0629 20.3493 89.9669 20.1413 89.7749 19.992C89.5829 19.8427 89.3269 19.7307 89.0069 19.656C88.6975 19.5813 88.3509 19.5173 87.9669 19.464C87.5829 19.4 87.1989 19.3253 86.8149 19.24C86.4309 19.144 86.0789 19.016 85.7589 18.856C85.4389 18.6853 85.1829 18.456 84.9909 18.168C84.7989 17.8693 84.7029 17.4747 84.7029 16.984C84.7029 16.472 84.8469 16.024 85.1349 15.64C85.4229 15.256 85.8282 14.9627 86.3509 14.76C86.8842 14.5467 87.5135 14.44 88.2389 14.44C88.7935 14.44 89.3535 14.5093 89.9189 14.648C90.4949 14.776 90.9642 14.9627 91.3269 15.208L90.6709 16.424C90.2869 16.168 89.8869 15.992 89.4709 15.896C89.0549 15.8 88.6389 15.752 88.2229 15.752C87.5509 15.752 87.0495 15.864 86.7189 16.088C86.3882 16.3013 86.2229 16.5787 86.2229 16.92C86.2229 17.208 86.3189 17.432 86.5109 17.592C86.7135 17.7413 86.9695 17.8587 87.2789 17.944C87.5989 18.0293 87.9509 18.104 88.3349 18.168C88.7189 18.2213 89.1029 18.296 89.4869 18.392C89.8709 18.4773 90.2175 18.6 90.5269 18.76C90.8469 18.92 91.1029 19.144 91.2949 19.432C91.4975 19.72 91.5989 20.104 91.5989 20.584C91.5989 21.096 91.4495 21.5387 91.1509 21.912C90.8522 22.2853 90.4309 22.5787 89.8869 22.792C89.3429 22.9947 88.6922 23.096 87.9349 23.096ZM98.0394 23V11.8H102.407C103.389 11.8 104.226 11.9547 104.919 12.264C105.613 12.5733 106.146 13.0213 106.519 13.608C106.893 14.1947 107.079 14.8933 107.079 15.704C107.079 16.5147 106.893 17.2133 106.519 17.8C106.146 18.376 105.613 18.824 104.919 19.144C104.226 19.4533 103.389 19.608 102.407 19.608H98.9194L99.6394 18.856V23H98.0394ZM99.6394 19.016L98.9194 18.216H102.359C103.383 18.216 104.157 17.9973 104.679 17.56C105.213 17.1227 105.479 16.504 105.479 15.704C105.479 14.904 105.213 14.2853 104.679 13.848C104.157 13.4107 103.383 13.192 102.359 13.192H98.9194L99.6394 12.392V19.016ZM112.951 23.096C112.044 23.096 111.244 22.9093 110.551 22.536C109.868 22.1627 109.335 21.6507 108.951 21C108.577 20.3493 108.391 19.6027 108.391 18.76C108.391 17.9173 108.572 17.1707 108.935 16.52C109.308 15.8693 109.815 15.3627 110.455 15C111.105 14.6267 111.836 14.44 112.647 14.44C113.468 14.44 114.193 14.6213 114.823 14.984C115.452 15.3467 115.943 15.8587 116.295 16.52C116.657 17.1707 116.839 17.9333 116.839 18.808C116.839 18.872 116.833 18.9467 116.823 19.032C116.823 19.1173 116.817 19.1973 116.807 19.272H109.591V18.168H116.007L115.383 18.552C115.393 18.008 115.281 17.5227 115.047 17.096C114.812 16.6693 114.487 16.3387 114.071 16.104C113.665 15.8587 113.191 15.736 112.647 15.736C112.113 15.736 111.639 15.8587 111.223 16.104C110.807 16.3387 110.481 16.6747 110.247 17.112C110.012 17.5387 109.895 18.0293 109.895 18.584V18.84C109.895 19.4053 110.023 19.912 110.279 20.36C110.545 20.7973 110.913 21.1387 111.383 21.384C111.852 21.6293 112.391 21.752 112.999 21.752C113.5 21.752 113.953 21.6667 114.359 21.496C114.775 21.3253 115.137 21.0693 115.447 20.728L116.295 21.72C115.911 22.168 115.431 22.5093 114.855 22.744C114.289 22.9787 113.655 23.096 112.951 23.096ZM118.972 23V14.52H120.444V16.824L120.3 16.248C120.534 15.6613 120.929 15.2133 121.484 14.904C122.038 14.5947 122.721 14.44 123.532 14.44V15.928C123.468 15.9173 123.404 15.912 123.34 15.912C123.286 15.912 123.233 15.912 123.18 15.912C122.358 15.912 121.708 16.1573 121.228 16.648C120.748 17.1387 120.508 17.848 120.508 18.776V23H118.972ZM127.951 23.096C127.247 23.096 126.575 23 125.935 22.808C125.305 22.616 124.809 22.3813 124.447 22.104L125.087 20.888C125.449 21.1333 125.897 21.3413 126.431 21.512C126.964 21.6827 127.508 21.768 128.062 21.768C128.777 21.768 129.289 21.6667 129.599 21.464C129.919 21.2613 130.079 20.9787 130.079 20.616C130.079 20.3493 129.983 20.1413 129.791 19.992C129.599 19.8427 129.343 19.7307 129.023 19.656C128.713 19.5813 128.367 19.5173 127.983 19.464C127.599 19.4 127.215 19.3253 126.831 19.24C126.447 19.144 126.095 19.016 125.775 18.856C125.455 18.6853 125.199 18.456 125.007 18.168C124.815 17.8693 124.719 17.4747 124.719 16.984C124.719 16.472 124.863 16.024 125.151 15.64C125.439 15.256 125.844 14.9627 126.367 14.76C126.9 14.5467 127.529 14.44 128.255 14.44C128.809 14.44 129.369 14.5093 129.935 14.648C130.511 14.776 130.98 14.9627 131.343 15.208L130.687 16.424C130.303 16.168 129.903 15.992 129.487 15.896C129.071 15.8 128.655 15.752 128.239 15.752C127.567 15.752 127.065 15.864 126.735 16.088C126.404 16.3013 126.239 16.5787 126.239 16.92C126.239 17.208 126.335 17.432 126.527 17.592C126.729 17.7413 126.985 17.8587 127.295 17.944C127.615 18.0293 127.967 18.104 128.351 18.168C128.735 18.2213 129.119 18.296 129.503 18.392C129.887 18.4773 130.233 18.6 130.543 18.76C130.863 18.92 131.119 19.144 131.311 19.432C131.513 19.72 131.615 20.104 131.615 20.584C131.615 21.096 131.465 21.5387 131.167 21.912C130.868 22.2853 130.447 22.5787 129.903 22.792C129.359 22.9947 128.708 23.096 127.951 23.096ZM137.166 23.096C136.313 23.096 135.555 22.9093 134.894 22.536C134.233 22.1627 133.71 21.6507 133.326 21C132.942 20.3387 132.75 19.592 132.75 18.76C132.75 17.9173 132.942 17.1707 133.326 16.52C133.71 15.8693 134.233 15.3627 134.894 15C135.555 14.6267 136.313 14.44 137.166 14.44C138.009 14.44 138.761 14.6267 139.422 15C140.094 15.3627 140.617 15.8693 140.99 16.52C141.374 17.16 141.566 17.9067 141.566 18.76C141.566 19.6027 141.374 20.3493 140.99 21C140.617 21.6507 140.094 22.1627 139.422 22.536C138.761 22.9093 138.009 23.096 137.166 23.096ZM137.166 21.752C137.71 21.752 138.195 21.6293 138.622 21.384C139.059 21.1387 139.401 20.792 139.646 20.344C139.891 19.8853 140.014 19.3573 140.014 18.76C140.014 18.152 139.891 17.6293 139.646 17.192C139.401 16.744 139.059 16.3973 138.622 16.152C138.195 15.9067 137.71 15.784 137.166 15.784C136.622 15.784 136.137 15.9067 135.71 16.152C135.283 16.3973 134.942 16.744 134.686 17.192C134.43 17.6293 134.302 18.152 134.302 18.76C134.302 19.3573 134.43 19.8853 134.686 20.344C134.942 20.792 135.283 21.1387 135.71 21.384C136.137 21.6293 136.622 21.752 137.166 21.752ZM148.218 14.44C148.912 14.44 149.52 14.5733 150.042 14.84C150.576 15.1067 150.992 15.512 151.29 16.056C151.589 16.6 151.738 17.288 151.738 18.12V23H150.202V18.296C150.202 17.4747 150 16.856 149.594 16.44C149.2 16.024 148.64 15.816 147.914 15.816C147.37 15.816 146.896 15.9227 146.49 16.136C146.085 16.3493 145.77 16.664 145.546 17.08C145.333 17.496 145.226 18.0133 145.226 18.632V23H143.69V14.52H145.162V16.808L144.922 16.2C145.2 15.6453 145.626 15.2133 146.202 14.904C146.778 14.5947 147.45 14.44 148.218 14.44ZM159.845 23V21.208L159.765 20.872V17.816C159.765 17.1653 159.573 16.664 159.189 16.312C158.816 15.9493 158.25 15.768 157.493 15.768C156.992 15.768 156.501 15.8533 156.021 16.024C155.541 16.184 155.136 16.4027 154.805 16.68L154.165 15.528C154.602 15.176 155.125 14.9093 155.733 14.728C156.352 14.536 156.997 14.44 157.669 14.44C158.832 14.44 159.728 14.7227 160.357 15.288C160.986 15.8533 161.301 16.7173 161.301 17.88V23H159.845ZM157.061 23.096C156.432 23.096 155.877 22.9893 155.397 22.776C154.928 22.5627 154.565 22.2693 154.309 21.896C154.053 21.512 153.925 21.08 153.925 20.6C153.925 20.1413 154.032 19.7253 154.245 19.352C154.469 18.9787 154.826 18.68 155.317 18.456C155.818 18.232 156.49 18.12 157.333 18.12H160.021V19.224H157.397C156.629 19.224 156.112 19.352 155.845 19.608C155.578 19.864 155.445 20.1733 155.445 20.536C155.445 20.952 155.61 21.288 155.941 21.544C156.272 21.7893 156.73 21.912 157.317 21.912C157.893 21.912 158.394 21.784 158.821 21.528C159.258 21.272 159.573 20.8987 159.765 20.408L160.069 21.464C159.866 21.9653 159.509 22.3653 158.997 22.664C158.485 22.952 157.84 23.096 157.061 23.096ZM164.144 23V11.128H165.68V23H164.144ZM173.133 23V11.8H177.853C179.048 11.8 180.098 12.0347 181.005 12.504C181.922 12.9733 182.632 13.6293 183.133 14.472C183.645 15.3147 183.901 16.2907 183.901 17.4C183.901 18.5093 183.645 19.4853 183.133 20.328C182.632 21.1707 181.922 21.8267 181.005 22.296C180.098 22.7653 179.048 23 177.853 23H173.133ZM174.733 21.608H177.757C178.685 21.608 179.485 21.432 180.157 21.08C180.84 20.728 181.368 20.2373 181.741 19.608C182.114 18.968 182.301 18.232 182.301 17.4C182.301 16.5573 182.114 15.8213 181.741 15.192C181.368 14.5627 180.84 14.072 180.157 13.72C179.485 13.368 178.685 13.192 177.757 13.192H174.733V21.608ZM189.904 23.096C188.997 23.096 188.197 22.9093 187.504 22.536C186.821 22.1627 186.288 21.6507 185.904 21C185.531 20.3493 185.344 19.6027 185.344 18.76C185.344 17.9173 185.525 17.1707 185.888 16.52C186.261 15.8693 186.768 15.3627 187.408 15C188.059 14.6267 188.789 14.44 189.6 14.44C190.421 14.44 191.147 14.6213 191.776 14.984C192.405 15.3467 192.896 15.8587 193.248 16.52C193.611 17.1707 193.792 17.9333 193.792 18.808C193.792 18.872 193.787 18.9467 193.776 19.032C193.776 19.1173 193.771 19.1973 193.76 19.272H186.544V18.168H192.96L192.336 18.552C192.347 18.008 192.235 17.5227 192 17.096C191.765 16.6693 191.44 16.3387 191.024 16.104C190.619 15.8587 190.144 15.736 189.6 15.736C189.067 15.736 188.592 15.8587 188.176 16.104C187.76 16.3387 187.435 16.6747 187.2 17.112C186.965 17.5387 186.848 18.0293 186.848 18.584V18.84C186.848 19.4053 186.976 19.912 187.232 20.36C187.499 20.7973 187.867 21.1387 188.336 21.384C188.805 21.6293 189.344 21.752 189.952 21.752C190.453 21.752 190.907 21.6667 191.312 21.496C191.728 21.3253 192.091 21.0693 192.4 20.728L193.248 21.72C192.864 22.168 192.384 22.5093 191.808 22.744C191.243 22.9787 190.608 23.096 189.904 23.096ZM196.149 23V13.768C196.149 12.936 196.389 12.2747 196.869 11.784C197.359 11.2827 198.053 11.032 198.949 11.032C199.279 11.032 199.594 11.0747 199.893 11.16C200.202 11.2347 200.463 11.3573 200.677 11.528L200.213 12.696C200.053 12.568 199.871 12.472 199.669 12.408C199.466 12.3333 199.253 12.296 199.029 12.296C198.581 12.296 198.239 12.424 198.005 12.68C197.77 12.9253 197.653 13.2933 197.653 13.784V14.92L197.685 15.624V23H196.149ZM194.709 15.784V14.52H200.117V15.784H194.709ZM206.673 23V21.208L206.593 20.872V17.816C206.593 17.1653 206.401 16.664 206.017 16.312C205.644 15.9493 205.078 15.768 204.321 15.768C203.82 15.768 203.329 15.8533 202.849 16.024C202.369 16.184 201.964 16.4027 201.633 16.68L200.993 15.528C201.43 15.176 201.953 14.9093 202.561 14.728C203.18 14.536 203.825 14.44 204.497 14.44C205.66 14.44 206.556 14.7227 207.185 15.288C207.814 15.8533 208.129 16.7173 208.129 17.88V23H206.673ZM203.889 23.096C203.26 23.096 202.705 22.9893 202.225 22.776C201.756 22.5627 201.393 22.2693 201.137 21.896C200.881 21.512 200.753 21.08 200.753 20.6C200.753 20.1413 200.86 19.7253 201.073 19.352C201.297 18.9787 201.654 18.68 202.145 18.456C202.646 18.232 203.318 18.12 204.161 18.12H206.849V19.224H204.225C203.457 19.224 202.94 19.352 202.673 19.608C202.406 19.864 202.273 20.1733 202.273 20.536C202.273 20.952 202.438 21.288 202.769 21.544C203.1 21.7893 203.558 21.912 204.145 21.912C204.721 21.912 205.222 21.784 205.649 21.528C206.086 21.272 206.401 20.8987 206.593 20.408L206.897 21.464C206.694 21.9653 206.337 22.3653 205.825 22.664C205.313 22.952 204.668 23.096 203.889 23.096ZM214.54 23.096C213.814 23.096 213.174 22.9627 212.62 22.696C212.076 22.4293 211.649 22.024 211.34 21.48C211.041 20.9253 210.892 20.232 210.892 19.4V14.52H212.428V19.224C212.428 20.056 212.625 20.68 213.02 21.096C213.425 21.512 213.99 21.72 214.716 21.72C215.249 21.72 215.713 21.6133 216.108 21.4C216.502 21.176 216.806 20.856 217.02 20.44C217.233 20.0133 217.34 19.5013 217.34 18.904V14.52H218.876V23H217.42V20.712L217.66 21.32C217.382 21.8853 216.966 22.3227 216.412 22.632C215.857 22.9413 215.233 23.096 214.54 23.096ZM221.8 23V11.128H223.336V23H221.8ZM229.399 23.096C228.546 23.096 227.885 22.8667 227.415 22.408C226.946 21.9493 226.711 21.2933 226.711 20.44V12.664H228.247V20.376C228.247 20.8347 228.359 21.1867 228.583 21.432C228.818 21.6773 229.149 21.8 229.575 21.8C230.055 21.8 230.455 21.6667 230.775 21.4L231.255 22.504C231.021 22.7067 230.738 22.856 230.407 22.952C230.087 23.048 229.751 23.096 229.399 23.096ZM225.271 15.784V14.52H230.679V15.784H225.271Z" fill="white"/>
</svg>
