<svg width="234" height="35" viewBox="0 0 234 35" fill="none" xmlns="http://www.w3.org/2000/svg">
<rect width="234" height="35" rx="17.5" fill="#00A3E0"/>
<path d="M33.7738 23V11.8H38.1418C39.1231 11.8 39.9604 11.9547 40.6538 12.264C41.3471 12.5733 41.8804 13.0213 42.2538 13.608C42.6271 14.1947 42.8138 14.8933 42.8138 15.704C42.8138 16.5147 42.6271 17.2133 42.2538 17.8C41.8804 18.376 41.3471 18.8187 40.6538 19.128C39.9604 19.4373 39.1231 19.592 38.1418 19.592H34.6538L35.3738 18.856V23H33.7738ZM41.2618 23L38.4138 18.936H40.1258L43.0058 23H41.2618ZM35.3738 19.016L34.6538 18.232H38.0938C39.1178 18.232 39.8911 18.0133 40.4138 17.576C40.9471 17.128 41.2138 16.504 41.2138 15.704C41.2138 14.904 40.9471 14.2853 40.4138 13.848C39.8911 13.4107 39.1178 13.192 38.0938 13.192H34.6538L35.3738 12.392V19.016ZM48.9508 23.096C48.0441 23.096 47.2441 22.9093 46.5508 22.536C45.8681 22.1627 45.3348 21.6507 44.9508 21C44.5774 20.3493 44.3908 19.6027 44.3908 18.76C44.3908 17.9173 44.5721 17.1707 44.9348 16.52C45.3081 15.8693 45.8148 15.3627 46.4548 15C47.1054 14.6267 47.8361 14.44 48.6468 14.44C49.4681 14.44 50.1934 14.6213 50.8228 14.984C51.4521 15.3467 51.9428 15.8587 52.2948 16.52C52.6574 17.1707 52.8388 17.9333 52.8388 18.808C52.8388 18.872 52.8334 18.9467 52.8228 19.032C52.8228 19.1173 52.8174 19.1973 52.8068 19.272H45.5908V18.168H52.0068L51.3828 18.552C51.3934 18.008 51.2814 17.5227 51.0468 17.096C50.8121 16.6693 50.4868 16.3387 50.0708 16.104C49.6654 15.8587 49.1908 15.736 48.6468 15.736C48.1134 15.736 47.6388 15.8587 47.2228 16.104C46.8068 16.3387 46.4814 16.6747 46.2468 17.112C46.0121 17.5387 45.8948 18.0293 45.8948 18.584V18.84C45.8948 19.4053 46.0228 19.912 46.2788 20.36C46.5454 20.7973 46.9134 21.1387 47.3828 21.384C47.8521 21.6293 48.3908 21.752 48.9988 21.752C49.5001 21.752 49.9534 21.6667 50.3588 21.496C50.7748 21.3253 51.1374 21.0693 51.4468 20.728L52.2948 21.72C51.9108 22.168 51.4308 22.5093 50.8548 22.744C50.2894 22.9787 49.6548 23.096 48.9508 23.096ZM57.4036 23.096C56.6996 23.096 56.0276 23 55.3876 22.808C54.7583 22.616 54.2623 22.3813 53.8996 22.104L54.5396 20.888C54.9023 21.1333 55.3503 21.3413 55.8836 21.512C56.417 21.6827 56.961 21.768 57.5156 21.768C58.2303 21.768 58.7423 21.6667 59.0516 21.464C59.3716 21.2613 59.5316 20.9787 59.5316 20.616C59.5316 20.3493 59.4356 20.1413 59.2436 19.992C59.0516 19.8427 58.7956 19.7307 58.4756 19.656C58.1663 19.5813 57.8196 19.5173 57.4356 19.464C57.0516 19.4 56.6676 19.3253 56.2836 19.24C55.8996 19.144 55.5476 19.016 55.2276 18.856C54.9076 18.6853 54.6516 18.456 54.4596 18.168C54.2676 17.8693 54.1716 17.4747 54.1716 16.984C54.1716 16.472 54.3156 16.024 54.6036 15.64C54.8916 15.256 55.297 14.9627 55.8196 14.76C56.353 14.5467 56.9823 14.44 57.7076 14.44C58.2623 14.44 58.8223 14.5093 59.3876 14.648C59.9636 14.776 60.433 14.9627 60.7956 15.208L60.1396 16.424C59.7556 16.168 59.3556 15.992 58.9396 15.896C58.5236 15.8 58.1076 15.752 57.6916 15.752C57.0196 15.752 56.5183 15.864 56.1876 16.088C55.857 16.3013 55.6916 16.5787 55.6916 16.92C55.6916 17.208 55.7876 17.432 55.9796 17.592C56.1823 17.7413 56.4383 17.8587 56.7476 17.944C57.0676 18.0293 57.4196 18.104 57.8036 18.168C58.1876 18.2213 58.5716 18.296 58.9556 18.392C59.3396 18.4773 59.6863 18.6 59.9956 18.76C60.3156 18.92 60.5716 19.144 60.7636 19.432C60.9663 19.72 61.0676 20.104 61.0676 20.584C61.0676 21.096 60.9183 21.5387 60.6196 21.912C60.321 22.2853 59.8996 22.5787 59.3556 22.792C58.8116 22.9947 58.161 23.096 57.4036 23.096ZM66.7633 23.096C65.8566 23.096 65.0566 22.9093 64.3633 22.536C63.6806 22.1627 63.1473 21.6507 62.7633 21C62.3899 20.3493 62.2033 19.6027 62.2033 18.76C62.2033 17.9173 62.3846 17.1707 62.7473 16.52C63.1206 15.8693 63.6273 15.3627 64.2673 15C64.9179 14.6267 65.6486 14.44 66.4593 14.44C67.2806 14.44 68.0059 14.6213 68.6353 14.984C69.2646 15.3467 69.7553 15.8587 70.1073 16.52C70.4699 17.1707 70.6513 17.9333 70.6513 18.808C70.6513 18.872 70.6459 18.9467 70.6353 19.032C70.6353 19.1173 70.6299 19.1973 70.6193 19.272H63.4033V18.168H69.8193L69.1953 18.552C69.2059 18.008 69.0939 17.5227 68.8593 17.096C68.6246 16.6693 68.2993 16.3387 67.8833 16.104C67.4779 15.8587 67.0033 15.736 66.4593 15.736C65.9259 15.736 65.4513 15.8587 65.0353 16.104C64.6193 16.3387 64.2939 16.6747 64.0593 17.112C63.8246 17.5387 63.7073 18.0293 63.7073 18.584V18.84C63.7073 19.4053 63.8353 19.912 64.0913 20.36C64.3579 20.7973 64.7259 21.1387 65.1953 21.384C65.6646 21.6293 66.2033 21.752 66.8113 21.752C67.3126 21.752 67.7659 21.6667 68.1713 21.496C68.5873 21.3253 68.9499 21.0693 69.2593 20.728L70.1073 21.72C69.7233 22.168 69.2433 22.5093 68.6673 22.744C68.1019 22.9787 67.4673 23.096 66.7633 23.096ZM75.6961 23.096C74.8428 23.096 74.1815 22.8667 73.7121 22.408C73.2428 21.9493 73.0081 21.2933 73.0081 20.44V12.664H74.5441V20.376C74.5441 20.8347 74.6561 21.1867 74.8801 21.432C75.1148 21.6773 75.4455 21.8 75.8721 21.8C76.3521 21.8 76.7521 21.6667 77.0721 21.4L77.5521 22.504C77.3175 22.7067 77.0348 22.856 76.7041 22.952C76.3841 23.048 76.0481 23.096 75.6961 23.096ZM71.5681 15.784V14.52H76.9761V15.784H71.5681ZM86.618 23.096C85.7647 23.096 85.1033 22.8667 84.634 22.408C84.1647 21.9493 83.93 21.2933 83.93 20.44V12.664H85.466V20.376C85.466 20.8347 85.578 21.1867 85.802 21.432C86.0367 21.6773 86.3673 21.8 86.794 21.8C87.274 21.8 87.674 21.6667 87.994 21.4L88.474 22.504C88.2393 22.7067 87.9567 22.856 87.626 22.952C87.306 23.048 86.97 23.096 86.618 23.096ZM82.49 15.784V14.52H87.898V15.784H82.49ZM93.6818 23.096C92.8284 23.096 92.0711 22.9093 91.4098 22.536C90.7484 22.1627 90.2258 21.6507 89.8418 21C89.4578 20.3387 89.2658 19.592 89.2658 18.76C89.2658 17.9173 89.4578 17.1707 89.8418 16.52C90.2258 15.8693 90.7484 15.3627 91.4098 15C92.0711 14.6267 92.8284 14.44 93.6818 14.44C94.5244 14.44 95.2764 14.6267 95.9378 15C96.6098 15.3627 97.1324 15.8693 97.5058 16.52C97.8898 17.16 98.0818 17.9067 98.0818 18.76C98.0818 19.6027 97.8898 20.3493 97.5058 21C97.1324 21.6507 96.6098 22.1627 95.9378 22.536C95.2764 22.9093 94.5244 23.096 93.6818 23.096ZM93.6818 21.752C94.2258 21.752 94.7111 21.6293 95.1378 21.384C95.5751 21.1387 95.9164 20.792 96.1618 20.344C96.4071 19.8853 96.5298 19.3573 96.5298 18.76C96.5298 18.152 96.4071 17.6293 96.1618 17.192C95.9164 16.744 95.5751 16.3973 95.1378 16.152C94.7111 15.9067 94.2258 15.784 93.6818 15.784C93.1378 15.784 92.6524 15.9067 92.2258 16.152C91.7991 16.3973 91.4578 16.744 91.2018 17.192C90.9458 17.6293 90.8178 18.152 90.8178 18.76C90.8178 19.3573 90.9458 19.8853 91.2018 20.344C91.4578 20.792 91.7991 21.1387 92.2258 21.384C92.6524 21.6293 93.1378 21.752 93.6818 21.752ZM104.727 23V11.8H109.095C110.076 11.8 110.914 11.9547 111.607 12.264C112.3 12.5733 112.834 13.0213 113.207 13.608C113.58 14.1947 113.767 14.8933 113.767 15.704C113.767 16.5147 113.58 17.2133 113.207 17.8C112.834 18.376 112.3 18.824 111.607 19.144C110.914 19.4533 110.076 19.608 109.095 19.608H105.607L106.327 18.856V23H104.727ZM106.327 19.016L105.607 18.216H109.047C110.071 18.216 110.844 17.9973 111.367 17.56C111.9 17.1227 112.167 16.504 112.167 15.704C112.167 14.904 111.9 14.2853 111.367 13.848C110.844 13.4107 110.071 13.192 109.047 13.192H105.607L106.327 12.392V19.016ZM118.718 23.128C117.961 23.128 117.289 23.0053 116.702 22.76C116.115 22.5147 115.651 22.1733 115.31 21.736C114.969 21.2987 114.798 20.792 114.798 20.216C114.798 19.7147 114.91 19.256 115.134 18.84C115.358 18.424 115.715 18.024 116.206 17.64C116.697 17.2453 117.342 16.84 118.142 16.424C118.793 16.0827 119.299 15.784 119.662 15.528C120.035 15.272 120.297 15.032 120.446 14.808C120.606 14.5733 120.686 14.3227 120.686 14.056C120.686 13.6933 120.558 13.4 120.302 13.176C120.046 12.9413 119.678 12.824 119.198 12.824C118.697 12.824 118.302 12.952 118.014 13.208C117.737 13.4533 117.598 13.7787 117.598 14.184C117.598 14.3867 117.63 14.584 117.694 14.776C117.769 14.9573 117.897 15.1653 118.078 15.4C118.27 15.624 118.542 15.912 118.894 16.264L124.814 22.152L123.95 23.176L117.662 16.92C117.289 16.5467 116.995 16.216 116.782 15.928C116.569 15.6293 116.414 15.3413 116.318 15.064C116.222 14.7867 116.174 14.504 116.174 14.216C116.174 13.7147 116.297 13.2773 116.542 12.904C116.798 12.52 117.15 12.2267 117.598 12.024C118.057 11.8107 118.59 11.704 119.198 11.704C119.763 11.704 120.254 11.8 120.67 11.992C121.086 12.1733 121.406 12.44 121.63 12.792C121.865 13.1333 121.982 13.5493 121.982 14.04C121.982 14.4667 121.875 14.8613 121.662 15.224C121.459 15.5867 121.129 15.9387 120.67 16.28C120.211 16.6213 119.593 16.9893 118.814 17.384C118.174 17.7147 117.673 18.024 117.31 18.312C116.947 18.5893 116.686 18.8667 116.526 19.144C116.377 19.4213 116.302 19.7253 116.302 20.056C116.302 20.408 116.403 20.7227 116.606 21C116.819 21.2667 117.113 21.4747 117.486 21.624C117.87 21.7733 118.313 21.848 118.814 21.848C119.529 21.848 120.174 21.6933 120.75 21.384C121.326 21.0747 121.806 20.6107 122.19 19.992C122.585 19.3733 122.873 18.6053 123.054 17.688L124.286 18.088C124.073 19.1653 123.705 20.0773 123.182 20.824C122.67 21.5707 122.035 22.1413 121.278 22.536C120.521 22.9307 119.667 23.128 118.718 23.128ZM131.783 23.128C130.919 23.128 130.124 22.9893 129.399 22.712C128.674 22.424 128.044 22.024 127.511 21.512C126.978 20.9893 126.562 20.3813 126.263 19.688C125.964 18.9947 125.815 18.232 125.815 17.4C125.815 16.568 125.964 15.8053 126.263 15.112C126.562 14.4187 126.978 13.816 127.511 13.304C128.055 12.7813 128.69 12.3813 129.415 12.104C130.14 11.816 130.94 11.672 131.815 11.672C132.7 11.672 133.511 11.816 134.247 12.104C134.983 12.392 135.607 12.824 136.119 13.4L135.127 14.392C134.668 13.944 134.167 13.6187 133.623 13.416C133.09 13.2027 132.508 13.096 131.879 13.096C131.239 13.096 130.642 13.2027 130.087 13.416C129.543 13.6293 129.068 13.928 128.663 14.312C128.268 14.696 127.959 15.1547 127.735 15.688C127.522 16.2107 127.415 16.7813 127.415 17.4C127.415 18.008 127.522 18.5787 127.735 19.112C127.959 19.6347 128.268 20.0933 128.663 20.488C129.068 20.872 129.543 21.1707 130.087 21.384C130.631 21.5973 131.223 21.704 131.863 21.704C132.46 21.704 133.031 21.6133 133.575 21.432C134.13 21.24 134.642 20.9253 135.111 20.488L136.023 21.704C135.468 22.1733 134.818 22.5307 134.071 22.776C133.335 23.0107 132.572 23.128 131.783 23.128ZM134.487 21.496V17.336H136.023V21.704L134.487 21.496ZM143.383 23V11.8H148.103C149.298 11.8 150.348 12.0347 151.255 12.504C152.172 12.9733 152.882 13.6293 153.383 14.472C153.895 15.3147 154.151 16.2907 154.151 17.4C154.151 18.5093 153.895 19.4853 153.383 20.328C152.882 21.1707 152.172 21.8267 151.255 22.296C150.348 22.7653 149.298 23 148.103 23H143.383ZM144.983 21.608H148.007C148.935 21.608 149.735 21.432 150.407 21.08C151.09 20.728 151.618 20.2373 151.991 19.608C152.364 18.968 152.551 18.232 152.551 17.4C152.551 16.5573 152.364 15.8213 151.991 15.192C151.618 14.5627 151.09 14.072 150.407 13.72C149.735 13.368 148.935 13.192 148.007 13.192H144.983V21.608ZM160.154 23.096C159.247 23.096 158.447 22.9093 157.754 22.536C157.071 22.1627 156.538 21.6507 156.154 21C155.781 20.3493 155.594 19.6027 155.594 18.76C155.594 17.9173 155.775 17.1707 156.138 16.52C156.511 15.8693 157.018 15.3627 157.658 15C158.309 14.6267 159.039 14.44 159.85 14.44C160.671 14.44 161.397 14.6213 162.026 14.984C162.655 15.3467 163.146 15.8587 163.498 16.52C163.861 17.1707 164.042 17.9333 164.042 18.808C164.042 18.872 164.037 18.9467 164.026 19.032C164.026 19.1173 164.021 19.1973 164.01 19.272H156.794V18.168H163.21L162.586 18.552C162.597 18.008 162.485 17.5227 162.25 17.096C162.015 16.6693 161.69 16.3387 161.274 16.104C160.869 15.8587 160.394 15.736 159.85 15.736C159.317 15.736 158.842 15.8587 158.426 16.104C158.01 16.3387 157.685 16.6747 157.45 17.112C157.215 17.5387 157.098 18.0293 157.098 18.584V18.84C157.098 19.4053 157.226 19.912 157.482 20.36C157.749 20.7973 158.117 21.1387 158.586 21.384C159.055 21.6293 159.594 21.752 160.202 21.752C160.703 21.752 161.157 21.6667 161.562 21.496C161.978 21.3253 162.341 21.0693 162.65 20.728L163.498 21.72C163.114 22.168 162.634 22.5093 162.058 22.744C161.493 22.9787 160.858 23.096 160.154 23.096ZM166.399 23V13.768C166.399 12.936 166.639 12.2747 167.119 11.784C167.609 11.2827 168.303 11.032 169.199 11.032C169.529 11.032 169.844 11.0747 170.143 11.16C170.452 11.2347 170.713 11.3573 170.927 11.528L170.463 12.696C170.303 12.568 170.121 12.472 169.919 12.408C169.716 12.3333 169.503 12.296 169.279 12.296C168.831 12.296 168.489 12.424 168.255 12.68C168.02 12.9253 167.903 13.2933 167.903 13.784V14.92L167.935 15.624V23H166.399ZM164.959 15.784V14.52H170.367V15.784H164.959ZM176.923 23V21.208L176.843 20.872V17.816C176.843 17.1653 176.651 16.664 176.267 16.312C175.894 15.9493 175.328 15.768 174.571 15.768C174.07 15.768 173.579 15.8533 173.099 16.024C172.619 16.184 172.214 16.4027 171.883 16.68L171.243 15.528C171.68 15.176 172.203 14.9093 172.811 14.728C173.43 14.536 174.075 14.44 174.747 14.44C175.91 14.44 176.806 14.7227 177.435 15.288C178.064 15.8533 178.379 16.7173 178.379 17.88V23H176.923ZM174.139 23.096C173.51 23.096 172.955 22.9893 172.475 22.776C172.006 22.5627 171.643 22.2693 171.387 21.896C171.131 21.512 171.003 21.08 171.003 20.6C171.003 20.1413 171.11 19.7253 171.323 19.352C171.547 18.9787 171.904 18.68 172.395 18.456C172.896 18.232 173.568 18.12 174.411 18.12H177.099V19.224H174.475C173.707 19.224 173.19 19.352 172.923 19.608C172.656 19.864 172.523 20.1733 172.523 20.536C172.523 20.952 172.688 21.288 173.019 21.544C173.35 21.7893 173.808 21.912 174.395 21.912C174.971 21.912 175.472 21.784 175.899 21.528C176.336 21.272 176.651 20.8987 176.843 20.408L177.147 21.464C176.944 21.9653 176.587 22.3653 176.075 22.664C175.563 22.952 174.918 23.096 174.139 23.096ZM184.79 23.096C184.064 23.096 183.424 22.9627 182.87 22.696C182.326 22.4293 181.899 22.024 181.59 21.48C181.291 20.9253 181.142 20.232 181.142 19.4V14.52H182.678V19.224C182.678 20.056 182.875 20.68 183.27 21.096C183.675 21.512 184.24 21.72 184.966 21.72C185.499 21.72 185.963 21.6133 186.358 21.4C186.752 21.176 187.056 20.856 187.27 20.44C187.483 20.0133 187.59 19.5013 187.59 18.904V14.52H189.126V23H187.67V20.712L187.91 21.32C187.632 21.8853 187.216 22.3227 186.662 22.632C186.107 22.9413 185.483 23.096 184.79 23.096ZM192.05 23V11.128H193.586V23H192.05ZM199.649 23.096C198.796 23.096 198.135 22.8667 197.665 22.408C197.196 21.9493 196.961 21.2933 196.961 20.44V12.664H198.497V20.376C198.497 20.8347 198.609 21.1867 198.833 21.432C199.068 21.6773 199.399 21.8 199.825 21.8C200.305 21.8 200.705 21.6667 201.025 21.4L201.505 22.504C201.271 22.7067 200.988 22.856 200.657 22.952C200.337 23.048 200.001 23.096 199.649 23.096ZM195.521 15.784V14.52H200.929V15.784H195.521Z" fill="white"/>
</svg>
