<svg width="28" height="28" viewBox="0 0 28 28" fill="none" xmlns="http://www.w3.org/2000/svg">
<path d="M2 13.375C1.65482 13.375 1.375 13.6548 1.375 14C1.375 14.3452 1.65482 14.625 2 14.625H13.375V26C13.375 26.3452 13.6548 26.625 14 26.625C14.3452 26.625 14.625 26.3452 14.625 26V14.625H26C26.3452 14.625 26.625 14.3452 26.625 14C26.625 13.6548 26.3452 13.375 26 13.375H14.625V2C14.625 1.65482 14.3452 1.375 14 1.375C13.6548 1.375 13.375 1.65482 13.375 2V13.375H2Z" stroke="#003DA5" stroke-width="1.25" stroke-linecap="round" stroke-linejoin="round"/>
</svg>
