<svg width="28" height="28" viewBox="0 0 28 28" fill="none" xmlns="http://www.w3.org/2000/svg">
<path d="M25.2699 12.1801L24.1266 17.0568C23.1466 21.2684 21.2099 22.9718 17.5699 22.6218C16.9866 22.5751 16.3566 22.4701 15.6799 22.3068L13.7199 21.8401C8.85488 20.6851 7.34988 18.2818 8.49322 13.4051L9.63655 8.51676C9.86988 7.52509 10.1499 6.66176 10.4999 5.95009C11.8649 3.12676 14.1866 2.36842 18.0832 3.29009L20.0316 3.74509C24.9199 4.88842 26.4132 7.30342 25.2699 12.1801Z" stroke="#ACACAC" stroke-width="1.5" stroke-linecap="round" stroke-linejoin="round"/>
<path d="M14.7466 9.95162L20.4049 11.3866M13.6032 14.4666L16.9866 15.33M17.5699 22.6216C16.8466 23.1116 15.9366 23.5199 14.8282 23.8816L12.9849 24.4883C8.35324 25.9816 5.91491 24.7333 4.40991 20.1016L2.91658 15.4933C1.42324 10.8616 2.65991 8.41162 7.29158 6.91828L9.13491 6.31162C9.61324 6.15995 10.0682 6.03162 10.4999 5.94995C10.1499 6.66162 9.86991 7.52495 9.63658 8.51662L8.49324 13.405C7.34991 18.2816 8.85491 20.6849 13.7199 21.8399L15.6799 22.3066C16.3566 22.47 16.9866 22.5749 17.5699 22.6216Z" stroke="#ACACAC" stroke-width="1.5" stroke-linecap="round" stroke-linejoin="round"/>
</svg>
