<svg width="164" height="32" viewBox="0 0 164 32" fill="none" xmlns="http://www.w3.org/2000/svg">
<rect width="164" height="32" rx="16" fill="#ACACAC"/>
<path d="M19.5803 20V11.6H22.8563C23.5923 11.6 24.2203 11.716 24.7403 11.948C25.2603 12.18 25.6603 12.516 25.9403 12.956C26.2203 13.396 26.3603 13.92 26.3603 14.528C26.3603 15.136 26.2203 15.66 25.9403 16.1C25.6603 16.532 25.2603 16.864 24.7403 17.096C24.2203 17.328 23.5923 17.444 22.8563 17.444H20.2403L20.7803 16.892V20H19.5803ZM25.1963 20L23.0603 16.952H24.3443L26.5043 20H25.1963ZM20.7803 17.012L20.2403 16.424H22.8203C23.5883 16.424 24.1683 16.26 24.5603 15.932C24.9603 15.596 25.1603 15.128 25.1603 14.528C25.1603 13.928 24.9603 13.464 24.5603 13.136C24.1683 12.808 23.5883 12.644 22.8203 12.644H20.2403L20.7803 12.044V17.012ZM30.9631 20.072C30.2831 20.072 29.6831 19.932 29.1631 19.652C28.6511 19.372 28.2511 18.988 27.9631 18.5C27.6831 18.012 27.5431 17.452 27.5431 16.82C27.5431 16.188 27.6791 15.628 27.9511 15.14C28.2311 14.652 28.6111 14.272 29.0911 14C29.5791 13.72 30.1271 13.58 30.7351 13.58C31.3511 13.58 31.8951 13.716 32.3671 13.988C32.8391 14.26 33.2071 14.644 33.4711 15.14C33.7431 15.628 33.8791 16.2 33.8791 16.856C33.8791 16.904 33.8751 16.96 33.8671 17.024C33.8671 17.088 33.8631 17.148 33.8551 17.204H28.4431V16.376H33.2551L32.7871 16.664C32.7951 16.256 32.7111 15.892 32.5351 15.572C32.3591 15.252 32.1151 15.004 31.8031 14.828C31.4991 14.644 31.1431 14.552 30.7351 14.552C30.3351 14.552 29.9791 14.644 29.6671 14.828C29.3551 15.004 29.1111 15.256 28.9351 15.584C28.7591 15.904 28.6711 16.272 28.6711 16.688V16.88C28.6711 17.304 28.7671 17.684 28.9591 18.02C29.1591 18.348 29.4351 18.604 29.7871 18.788C30.1391 18.972 30.5431 19.064 30.9991 19.064C31.3751 19.064 31.7151 19 32.0191 18.872C32.3311 18.744 32.6031 18.552 32.8351 18.296L33.4711 19.04C33.1831 19.376 32.8231 19.632 32.3911 19.808C31.9671 19.984 31.4911 20.072 30.9631 20.072ZM37.3027 20.072C36.7747 20.072 36.2707 20 35.7907 19.856C35.3187 19.712 34.9467 19.536 34.6747 19.328L35.1547 18.416C35.4267 18.6 35.7627 18.756 36.1627 18.884C36.5627 19.012 36.9707 19.076 37.3867 19.076C37.9227 19.076 38.3067 19 38.5387 18.848C38.7787 18.696 38.8987 18.484 38.8987 18.212C38.8987 18.012 38.8267 17.856 38.6827 17.744C38.5387 17.632 38.3467 17.548 38.1067 17.492C37.8747 17.436 37.6147 17.388 37.3267 17.348C37.0387 17.3 36.7507 17.244 36.4627 17.18C36.1747 17.108 35.9107 17.012 35.6707 16.892C35.4307 16.764 35.2387 16.592 35.0947 16.376C34.9507 16.152 34.8787 15.856 34.8787 15.488C34.8787 15.104 34.9867 14.768 35.2027 14.48C35.4187 14.192 35.7227 13.972 36.1147 13.82C36.5147 13.66 36.9867 13.58 37.5307 13.58C37.9467 13.58 38.3667 13.632 38.7907 13.736C39.2227 13.832 39.5747 13.972 39.8467 14.156L39.3547 15.068C39.0667 14.876 38.7667 14.744 38.4547 14.672C38.1427 14.6 37.8307 14.564 37.5187 14.564C37.0147 14.564 36.6387 14.648 36.3907 14.816C36.1427 14.976 36.0187 15.184 36.0187 15.44C36.0187 15.656 36.0907 15.824 36.2347 15.944C36.3867 16.056 36.5787 16.144 36.8107 16.208C37.0507 16.272 37.3147 16.328 37.6027 16.376C37.8907 16.416 38.1787 16.472 38.4667 16.544C38.7547 16.608 39.0147 16.7 39.2467 16.82C39.4867 16.94 39.6787 17.108 39.8227 17.324C39.9747 17.54 40.0507 17.828 40.0507 18.188C40.0507 18.572 39.9387 18.904 39.7147 19.184C39.4907 19.464 39.1747 19.684 38.7667 19.844C38.3587 19.996 37.8707 20.072 37.3027 20.072ZM44.3224 20.072C43.6424 20.072 43.0424 19.932 42.5224 19.652C42.0104 19.372 41.6104 18.988 41.3224 18.5C41.0424 18.012 40.9024 17.452 40.9024 16.82C40.9024 16.188 41.0384 15.628 41.3104 15.14C41.5904 14.652 41.9704 14.272 42.4504 14C42.9384 13.72 43.4864 13.58 44.0944 13.58C44.7104 13.58 45.2544 13.716 45.7264 13.988C46.1984 14.26 46.5664 14.644 46.8304 15.14C47.1024 15.628 47.2384 16.2 47.2384 16.856C47.2384 16.904 47.2344 16.96 47.2264 17.024C47.2264 17.088 47.2224 17.148 47.2144 17.204H41.8024V16.376H46.6144L46.1464 16.664C46.1544 16.256 46.0704 15.892 45.8944 15.572C45.7184 15.252 45.4744 15.004 45.1624 14.828C44.8584 14.644 44.5024 14.552 44.0944 14.552C43.6944 14.552 43.3384 14.644 43.0264 14.828C42.7144 15.004 42.4704 15.256 42.2944 15.584C42.1184 15.904 42.0304 16.272 42.0304 16.688V16.88C42.0304 17.304 42.1264 17.684 42.3184 18.02C42.5184 18.348 42.7944 18.604 43.1464 18.788C43.4984 18.972 43.9024 19.064 44.3584 19.064C44.7344 19.064 45.0744 19 45.3784 18.872C45.6904 18.744 45.9624 18.552 46.1944 18.296L46.8304 19.04C46.5424 19.376 46.1824 19.632 45.7504 19.808C45.3264 19.984 44.8504 20.072 44.3224 20.072ZM51.0221 20.072C50.3821 20.072 49.8861 19.9 49.5341 19.556C49.1821 19.212 49.0061 18.72 49.0061 18.08V12.248H50.1581V18.032C50.1581 18.376 50.2421 18.64 50.4101 18.824C50.5861 19.008 50.8341 19.1 51.1541 19.1C51.5141 19.1 51.8141 19 52.0541 18.8L52.4141 19.628C52.2381 19.78 52.0261 19.892 51.7781 19.964C51.5381 20.036 51.2861 20.072 51.0221 20.072ZM47.9261 14.588V13.64H51.9821V14.588H47.9261ZM59.2135 20.072C58.5735 20.072 58.0775 19.9 57.7255 19.556C57.3735 19.212 57.1975 18.72 57.1975 18.08V12.248H58.3495V18.032C58.3495 18.376 58.4335 18.64 58.6015 18.824C58.7775 19.008 59.0255 19.1 59.3455 19.1C59.7055 19.1 60.0055 19 60.2455 18.8L60.6055 19.628C60.4295 19.78 60.2175 19.892 59.9695 19.964C59.7295 20.036 59.4775 20.072 59.2135 20.072ZM56.1175 14.588V13.64H60.1735V14.588H56.1175ZM64.5113 20.072C63.8713 20.072 63.3033 19.932 62.8073 19.652C62.3113 19.372 61.9193 18.988 61.6313 18.5C61.3433 18.004 61.1993 17.444 61.1993 16.82C61.1993 16.188 61.3433 15.628 61.6313 15.14C61.9193 14.652 62.3113 14.272 62.8073 14C63.3033 13.72 63.8713 13.58 64.5113 13.58C65.1433 13.58 65.7073 13.72 66.2033 14C66.7073 14.272 67.0993 14.652 67.3793 15.14C67.6673 15.62 67.8113 16.18 67.8113 16.82C67.8113 17.452 67.6673 18.012 67.3793 18.5C67.0993 18.988 66.7073 19.372 66.2033 19.652C65.7073 19.932 65.1433 20.072 64.5113 20.072ZM64.5113 19.064C64.9193 19.064 65.2833 18.972 65.6033 18.788C65.9313 18.604 66.1873 18.344 66.3713 18.008C66.5553 17.664 66.6473 17.268 66.6473 16.82C66.6473 16.364 66.5553 15.972 66.3713 15.644C66.1873 15.308 65.9313 15.048 65.6033 14.864C65.2833 14.68 64.9193 14.588 64.5113 14.588C64.1033 14.588 63.7393 14.68 63.4193 14.864C63.0993 15.048 62.8433 15.308 62.6513 15.644C62.4593 15.972 62.3633 16.364 62.3633 16.82C62.3633 17.268 62.4593 17.664 62.6513 18.008C62.8433 18.344 63.0993 18.604 63.4193 18.788C63.7393 18.972 64.1033 19.064 64.5113 19.064ZM72.7952 20V11.6H76.0712C76.8072 11.6 77.4352 11.716 77.9552 11.948C78.4752 12.18 78.8752 12.516 79.1552 12.956C79.4352 13.396 79.5752 13.92 79.5752 14.528C79.5752 15.136 79.4352 15.66 79.1552 16.1C78.8752 16.532 78.4752 16.868 77.9552 17.108C77.4352 17.34 76.8072 17.456 76.0712 17.456H73.4552L73.9952 16.892V20H72.7952ZM73.9952 17.012L73.4552 16.412H76.0352C76.8032 16.412 77.3832 16.248 77.7752 15.92C78.1752 15.592 78.3752 15.128 78.3752 14.528C78.3752 13.928 78.1752 13.464 77.7752 13.136C77.3832 12.808 76.8032 12.644 76.0352 12.644H73.4552L73.9952 12.044V17.012ZM83.2886 20.096C82.7206 20.096 82.2166 20.004 81.7766 19.82C81.3366 19.636 80.9886 19.38 80.7326 19.052C80.4766 18.724 80.3486 18.344 80.3486 17.912C80.3486 17.536 80.4326 17.192 80.6006 16.88C80.7686 16.568 81.0366 16.268 81.4046 15.98C81.7726 15.684 82.2566 15.38 82.8566 15.068C83.3446 14.812 83.7246 14.588 83.9966 14.396C84.2766 14.204 84.4726 14.024 84.5846 13.856C84.7046 13.68 84.7646 13.492 84.7646 13.292C84.7646 13.02 84.6686 12.8 84.4766 12.632C84.2846 12.456 84.0086 12.368 83.6486 12.368C83.2726 12.368 82.9766 12.464 82.7606 12.656C82.5526 12.84 82.4486 13.084 82.4486 13.388C82.4486 13.54 82.4726 13.688 82.5206 13.832C82.5766 13.968 82.6726 14.124 82.8086 14.3C82.9526 14.468 83.1566 14.684 83.4206 14.948L87.8606 19.364L87.2126 20.132L82.4966 15.44C82.2166 15.16 81.9966 14.912 81.8366 14.696C81.6766 14.472 81.5606 14.256 81.4886 14.048C81.4166 13.84 81.3806 13.628 81.3806 13.412C81.3806 13.036 81.4726 12.708 81.6566 12.428C81.8486 12.14 82.1126 11.92 82.4486 11.768C82.7926 11.608 83.1926 11.528 83.6486 11.528C84.0726 11.528 84.4406 11.6 84.7526 11.744C85.0646 11.88 85.3046 12.08 85.4726 12.344C85.6486 12.6 85.7366 12.912 85.7366 13.28C85.7366 13.6 85.6566 13.896 85.4966 14.168C85.3446 14.44 85.0966 14.704 84.7526 14.96C84.4086 15.216 83.9446 15.492 83.3606 15.788C82.8806 16.036 82.5046 16.268 82.2326 16.484C81.9606 16.692 81.7646 16.9 81.6446 17.108C81.5326 17.316 81.4766 17.544 81.4766 17.792C81.4766 18.056 81.5526 18.292 81.7046 18.5C81.8646 18.7 82.0846 18.856 82.3646 18.968C82.6526 19.08 82.9846 19.136 83.3606 19.136C83.8966 19.136 84.3806 19.02 84.8126 18.788C85.2446 18.556 85.6046 18.208 85.8926 17.744C86.1886 17.28 86.4046 16.704 86.5406 16.016L87.4646 16.316C87.3046 17.124 87.0286 17.808 86.6366 18.368C86.2526 18.928 85.7766 19.356 85.2086 19.652C84.6406 19.948 84.0006 20.096 83.2886 20.096ZM93.0872 20.096C92.4392 20.096 91.8432 19.992 91.2992 19.784C90.7552 19.568 90.2832 19.268 89.8832 18.884C89.4832 18.492 89.1712 18.036 88.9472 17.516C88.7232 16.996 88.6112 16.424 88.6112 15.8C88.6112 15.176 88.7232 14.604 88.9472 14.084C89.1712 13.564 89.4832 13.112 89.8832 12.728C90.2912 12.336 90.7672 12.036 91.3112 11.828C91.8552 11.612 92.4552 11.504 93.1112 11.504C93.7752 11.504 94.3832 11.612 94.9352 11.828C95.4872 12.044 95.9552 12.368 96.3392 12.8L95.5952 13.544C95.2512 13.208 94.8752 12.964 94.4672 12.812C94.0672 12.652 93.6312 12.572 93.1592 12.572C92.6792 12.572 92.2312 12.652 91.8152 12.812C91.4072 12.972 91.0512 13.196 90.7472 13.484C90.4512 13.772 90.2192 14.116 90.0512 14.516C89.8912 14.908 89.8112 15.336 89.8112 15.8C89.8112 16.256 89.8912 16.684 90.0512 17.084C90.2192 17.476 90.4512 17.82 90.7472 18.116C91.0512 18.404 91.4072 18.628 91.8152 18.788C92.2232 18.948 92.6672 19.028 93.1472 19.028C93.5952 19.028 94.0232 18.96 94.4312 18.824C94.8472 18.68 95.2312 18.444 95.5832 18.116L96.2672 19.028C95.8512 19.38 95.3632 19.648 94.8032 19.832C94.2512 20.008 93.6792 20.096 93.0872 20.096ZM95.1152 18.872V15.752H96.2672V19.028L95.1152 18.872ZM101.787 20V11.6H105.327C106.223 11.6 107.011 11.776 107.691 12.128C108.379 12.48 108.911 12.972 109.287 13.604C109.671 14.236 109.863 14.968 109.863 15.8C109.863 16.632 109.671 17.364 109.287 17.996C108.911 18.628 108.379 19.12 107.691 19.472C107.011 19.824 106.223 20 105.327 20H101.787ZM102.987 18.956H105.255C105.951 18.956 106.551 18.824 107.055 18.56C107.567 18.296 107.963 17.928 108.243 17.456C108.523 16.976 108.663 16.424 108.663 15.8C108.663 15.168 108.523 14.616 108.243 14.144C107.963 13.672 107.567 13.304 107.055 13.04C106.551 12.776 105.951 12.644 105.255 12.644H102.987V18.956ZM114.365 20.072C113.685 20.072 113.085 19.932 112.565 19.652C112.053 19.372 111.653 18.988 111.365 18.5C111.085 18.012 110.945 17.452 110.945 16.82C110.945 16.188 111.081 15.628 111.353 15.14C111.633 14.652 112.013 14.272 112.493 14C112.981 13.72 113.529 13.58 114.137 13.58C114.753 13.58 115.297 13.716 115.769 13.988C116.241 14.26 116.609 14.644 116.873 15.14C117.145 15.628 117.281 16.2 117.281 16.856C117.281 16.904 117.277 16.96 117.269 17.024C117.269 17.088 117.265 17.148 117.257 17.204H111.845V16.376H116.657L116.189 16.664C116.197 16.256 116.113 15.892 115.937 15.572C115.761 15.252 115.517 15.004 115.205 14.828C114.901 14.644 114.545 14.552 114.137 14.552C113.737 14.552 113.381 14.644 113.069 14.828C112.757 15.004 112.513 15.256 112.337 15.584C112.161 15.904 112.073 16.272 112.073 16.688V16.88C112.073 17.304 112.169 17.684 112.361 18.02C112.561 18.348 112.837 18.604 113.189 18.788C113.541 18.972 113.945 19.064 114.401 19.064C114.777 19.064 115.117 19 115.421 18.872C115.733 18.744 116.005 18.552 116.237 18.296L116.873 19.04C116.585 19.376 116.225 19.632 115.793 19.808C115.369 19.984 114.893 20.072 114.365 20.072ZM119.049 20V13.076C119.049 12.452 119.229 11.956 119.589 11.588C119.957 11.212 120.477 11.024 121.149 11.024C121.397 11.024 121.633 11.056 121.857 11.12C122.089 11.176 122.285 11.268 122.445 11.396L122.097 12.272C121.977 12.176 121.841 12.104 121.689 12.056C121.537 12 121.377 11.972 121.209 11.972C120.873 11.972 120.617 12.068 120.441 12.26C120.265 12.444 120.177 12.72 120.177 13.088V13.94L120.201 14.468V20H119.049ZM117.969 14.588V13.64H122.025V14.588H117.969ZM126.942 20V18.656L126.882 18.404V16.112C126.882 15.624 126.738 15.248 126.45 14.984C126.17 14.712 125.746 14.576 125.178 14.576C124.802 14.576 124.434 14.64 124.074 14.768C123.714 14.888 123.41 15.052 123.162 15.26L122.682 14.396C123.01 14.132 123.402 13.932 123.858 13.796C124.322 13.652 124.806 13.58 125.31 13.58C126.182 13.58 126.854 13.792 127.326 14.216C127.798 14.64 128.034 15.288 128.034 16.16V20H126.942ZM124.854 20.072C124.382 20.072 123.966 19.992 123.606 19.832C123.254 19.672 122.982 19.452 122.79 19.172C122.598 18.884 122.502 18.56 122.502 18.2C122.502 17.856 122.582 17.544 122.742 17.264C122.91 16.984 123.178 16.76 123.546 16.592C123.922 16.424 124.426 16.34 125.058 16.34H127.074V17.168H125.106C124.53 17.168 124.142 17.264 123.942 17.456C123.742 17.648 123.642 17.88 123.642 18.152C123.642 18.464 123.766 18.716 124.014 18.908C124.262 19.092 124.606 19.184 125.046 19.184C125.478 19.184 125.854 19.088 126.174 18.896C126.502 18.704 126.738 18.424 126.882 18.056L127.11 18.848C126.958 19.224 126.69 19.524 126.306 19.748C125.922 19.964 125.438 20.072 124.854 20.072ZM132.842 20.072C132.298 20.072 131.818 19.972 131.402 19.772C130.994 19.572 130.674 19.268 130.442 18.86C130.218 18.444 130.106 17.924 130.106 17.3V13.64H131.258V17.168C131.258 17.792 131.406 18.26 131.702 18.572C132.006 18.884 132.43 19.04 132.974 19.04C133.374 19.04 133.722 18.96 134.018 18.8C134.314 18.632 134.542 18.392 134.702 18.08C134.862 17.76 134.942 17.376 134.942 16.928V13.64H136.094V20H135.002V18.284L135.182 18.74C134.974 19.164 134.662 19.492 134.246 19.724C133.83 19.956 133.362 20.072 132.842 20.072ZM138.287 20V11.096H139.439V20H138.287ZM143.987 20.072C143.347 20.072 142.851 19.9 142.499 19.556C142.147 19.212 141.971 18.72 141.971 18.08V12.248H143.123V18.032C143.123 18.376 143.207 18.64 143.375 18.824C143.551 19.008 143.799 19.1 144.119 19.1C144.479 19.1 144.779 19 145.019 18.8L145.379 19.628C145.203 19.78 144.991 19.892 144.743 19.964C144.503 20.036 144.251 20.072 143.987 20.072ZM140.891 14.588V13.64H144.947V14.588H140.891Z" fill="white"/>
</svg>
