<svg width="199" height="13" viewBox="0 0 199 13" fill="none" xmlns="http://www.w3.org/2000/svg">
<path d="M4.28775 12.128C3.43442 12.128 2.61842 12 1.83975 11.744C1.06108 11.4773 0.44775 11.136 -0.000249982 10.72L0.59175 9.472C1.01842 9.84533 1.56242 10.1547 2.22375 10.4C2.88508 10.6453 3.57308 10.768 4.28775 10.768C4.93842 10.768 5.46642 10.6933 5.87175 10.544C6.27708 10.3947 6.57575 10.192 6.76775 9.936C6.95975 9.66933 7.05575 9.37067 7.05575 9.04C7.05575 8.656 6.92775 8.34667 6.67175 8.112C6.42642 7.87733 6.10108 7.69067 5.69575 7.552C5.30108 7.40267 4.86375 7.27467 4.38375 7.168C3.90375 7.06133 3.41842 6.93867 2.92775 6.8C2.44775 6.65067 2.00508 6.464 1.59975 6.24C1.20508 6.016 0.885083 5.71733 0.63975 5.344C0.394417 4.96 0.27175 4.46933 0.27175 3.872C0.27175 3.296 0.421083 2.768 0.71975 2.288C1.02908 1.79733 1.49842 1.408 2.12775 1.12C2.76775 0.821333 3.57842 0.672 4.55975 0.672C5.21042 0.672 5.85575 0.757333 6.49575 0.927999C7.13575 1.09867 7.69042 1.344 8.15975 1.664L7.63175 2.944C7.15175 2.624 6.64508 2.39467 6.11175 2.256C5.57842 2.10667 5.06108 2.032 4.55975 2.032C3.93042 2.032 3.41308 2.112 3.00775 2.272C2.60242 2.432 2.30375 2.64533 2.11175 2.912C1.93042 3.17867 1.83975 3.47733 1.83975 3.808C1.83975 4.20267 1.96242 4.51733 2.20775 4.752C2.46375 4.98667 2.78908 5.17333 3.18375 5.312C3.58908 5.45067 4.03175 5.57867 4.51175 5.696C4.99175 5.80267 5.47175 5.92533 5.95175 6.064C6.44242 6.20267 6.88508 6.384 7.27975 6.608C7.68508 6.832 8.01042 7.13067 8.25575 7.504C8.50108 7.87733 8.62375 8.35733 8.62375 8.944C8.62375 9.50933 8.46908 10.0373 8.15975 10.528C7.85042 11.008 7.37042 11.3973 6.71975 11.696C6.07975 11.984 5.26908 12.128 4.28775 12.128ZM16.0013 12V10.208L15.9213 9.872V6.816C15.9213 6.16533 15.7293 5.664 15.3453 5.312C14.9719 4.94933 14.4066 4.768 13.6493 4.768C13.1479 4.768 12.6573 4.85333 12.1773 5.024C11.6973 5.184 11.2919 5.40267 10.9613 5.68L10.3213 4.528C10.7586 4.176 11.2813 3.90933 11.8893 3.728C12.5079 3.536 13.1533 3.44 13.8253 3.44C14.9879 3.44 15.8839 3.72267 16.5133 4.288C17.1426 4.85333 17.4573 5.71733 17.4573 6.88V12H16.0013ZM13.2173 12.096C12.5879 12.096 12.0333 11.9893 11.5533 11.776C11.0839 11.5627 10.7213 11.2693 10.4653 10.896C10.2093 10.512 10.0813 10.08 10.0813 9.6C10.0813 9.14133 10.1879 8.72533 10.4013 8.352C10.6253 7.97867 10.9826 7.68 11.4733 7.456C11.9746 7.232 12.6466 7.12 13.4893 7.12H16.1773V8.224H13.5533C12.7853 8.224 12.2679 8.352 12.0013 8.608C11.7346 8.864 11.6013 9.17333 11.6013 9.536C11.6013 9.952 11.7666 10.288 12.0973 10.544C12.4279 10.7893 12.8866 10.912 13.4733 10.912C14.0493 10.912 14.5506 10.784 14.9773 10.528C15.4146 10.272 15.7293 9.89867 15.9213 9.408L16.2253 10.464C16.0226 10.9653 15.6653 11.3653 15.1533 11.664C14.6413 11.952 13.9959 12.096 13.2173 12.096ZM22.3675 12L18.6555 3.52H20.2555L23.5515 11.2H22.7835L26.1435 3.52H27.6475L23.9355 12H22.3675ZM32.6226 12.096C31.716 12.096 30.916 11.9093 30.2226 11.536C29.54 11.1627 29.0066 10.6507 28.6226 10C28.2493 9.34933 28.0626 8.60267 28.0626 7.76C28.0626 6.91733 28.244 6.17067 28.6066 5.52C28.98 4.86933 29.4866 4.36267 30.1266 4C30.7773 3.62667 31.508 3.44 32.3186 3.44C33.14 3.44 33.8653 3.62133 34.4946 3.984C35.124 4.34667 35.6146 4.85867 35.9666 5.52C36.3293 6.17067 36.5106 6.93333 36.5106 7.808C36.5106 7.872 36.5053 7.94667 36.4946 8.032C36.4946 8.11733 36.4893 8.19733 36.4786 8.272H29.2626V7.168H35.6786L35.0546 7.552C35.0653 7.008 34.9533 6.52267 34.7186 6.096C34.484 5.66933 34.1586 5.33867 33.7426 5.104C33.3373 4.85867 32.8626 4.736 32.3186 4.736C31.7853 4.736 31.3106 4.85867 30.8946 5.104C30.4786 5.33867 30.1533 5.67467 29.9186 6.112C29.684 6.53867 29.5666 7.02933 29.5666 7.584V7.84C29.5666 8.40533 29.6946 8.912 29.9506 9.36C30.2173 9.79733 30.5853 10.1387 31.0546 10.384C31.524 10.6293 32.0626 10.752 32.6706 10.752C33.172 10.752 33.6253 10.6667 34.0306 10.496C34.4466 10.3253 34.8093 10.0693 35.1186 9.728L35.9666 10.72C35.5826 11.168 35.1026 11.5093 34.5266 11.744C33.9613 11.9787 33.3266 12.096 32.6226 12.096ZM48.2044 12V10.208L48.1244 9.872V6.816C48.1244 6.16533 47.9324 5.664 47.5484 5.312C47.175 4.94933 46.6097 4.768 45.8524 4.768C45.351 4.768 44.8604 4.85333 44.3804 5.024C43.9004 5.184 43.495 5.40267 43.1644 5.68L42.5244 4.528C42.9617 4.176 43.4844 3.90933 44.0924 3.728C44.711 3.536 45.3564 3.44 46.0284 3.44C47.191 3.44 48.087 3.72267 48.7164 4.288C49.3457 4.85333 49.6604 5.71733 49.6604 6.88V12H48.2044ZM45.4204 12.096C44.791 12.096 44.2364 11.9893 43.7564 11.776C43.287 11.5627 42.9244 11.2693 42.6684 10.896C42.4124 10.512 42.2844 10.08 42.2844 9.6C42.2844 9.14133 42.391 8.72533 42.6044 8.352C42.8284 7.97867 43.1857 7.68 43.6764 7.456C44.1777 7.232 44.8497 7.12 45.6924 7.12H48.3804V8.224H45.7564C44.9884 8.224 44.471 8.352 44.2044 8.608C43.9377 8.864 43.8044 9.17333 43.8044 9.536C43.8044 9.952 43.9697 10.288 44.3004 10.544C44.631 10.7893 45.0897 10.912 45.6764 10.912C46.2524 10.912 46.7537 10.784 47.1804 10.528C47.6177 10.272 47.9324 9.89867 48.1244 9.408L48.4284 10.464C48.2257 10.9653 47.8684 11.3653 47.3564 11.664C46.8444 11.952 46.199 12.096 45.4204 12.096ZM54.9349 12.096C54.2309 12.096 53.5589 12 52.9189 11.808C52.2895 11.616 51.7935 11.3813 51.4309 11.104L52.0709 9.888C52.4335 10.1333 52.8815 10.3413 53.4149 10.512C53.9482 10.6827 54.4922 10.768 55.0469 10.768C55.7615 10.768 56.2735 10.6667 56.5829 10.464C56.9029 10.2613 57.0629 9.97867 57.0629 9.616C57.0629 9.34933 56.9669 9.14133 56.7749 8.992C56.5829 8.84267 56.3269 8.73067 56.0069 8.656C55.6975 8.58133 55.3509 8.51733 54.9669 8.464C54.5829 8.4 54.1989 8.32533 53.8149 8.24C53.4309 8.144 53.0789 8.016 52.7589 7.856C52.4389 7.68533 52.1829 7.456 51.9909 7.168C51.7989 6.86933 51.7029 6.47467 51.7029 5.984C51.7029 5.472 51.8469 5.024 52.1349 4.64C52.4229 4.256 52.8282 3.96267 53.3509 3.76C53.8842 3.54667 54.5135 3.44 55.2389 3.44C55.7935 3.44 56.3535 3.50933 56.9189 3.648C57.4949 3.776 57.9642 3.96267 58.3269 4.208L57.6709 5.424C57.2869 5.168 56.8869 4.992 56.4709 4.896C56.0549 4.8 55.6389 4.752 55.2229 4.752C54.5509 4.752 54.0495 4.864 53.7189 5.088C53.3882 5.30133 53.2229 5.57867 53.2229 5.92C53.2229 6.208 53.3189 6.432 53.5109 6.592C53.7135 6.74133 53.9695 6.85867 54.2789 6.944C54.5989 7.02933 54.9509 7.104 55.3349 7.168C55.7189 7.22133 56.1029 7.296 56.4869 7.392C56.8709 7.47733 57.2175 7.6 57.5269 7.76C57.8469 7.92 58.1029 8.144 58.2949 8.432C58.4975 8.72 58.5989 9.104 58.5989 9.584C58.5989 10.096 58.4495 10.5387 58.1509 10.912C57.8522 11.2853 57.4309 11.5787 56.8869 11.792C56.3429 11.9947 55.6922 12.096 54.9349 12.096ZM65.0394 12V0.799999H69.4074C70.3887 0.799999 71.226 0.954666 71.9194 1.264C72.6127 1.57333 73.146 2.02133 73.5194 2.608C73.8927 3.19467 74.0794 3.89333 74.0794 4.704C74.0794 5.51467 73.8927 6.21333 73.5194 6.8C73.146 7.376 72.6127 7.824 71.9194 8.144C71.226 8.45333 70.3887 8.608 69.4074 8.608H65.9194L66.6394 7.856V12H65.0394ZM66.6394 8.016L65.9194 7.216H69.3594C70.3834 7.216 71.1567 6.99733 71.6794 6.56C72.2127 6.12267 72.4794 5.504 72.4794 4.704C72.4794 3.904 72.2127 3.28533 71.6794 2.848C71.1567 2.41067 70.3834 2.192 69.3594 2.192H65.9194L66.6394 1.392V8.016ZM79.9508 12.096C79.0441 12.096 78.2441 11.9093 77.5508 11.536C76.8681 11.1627 76.3348 10.6507 75.9508 10C75.5774 9.34933 75.3908 8.60267 75.3908 7.76C75.3908 6.91733 75.5721 6.17067 75.9348 5.52C76.3081 4.86933 76.8148 4.36267 77.4548 4C78.1054 3.62667 78.8361 3.44 79.6468 3.44C80.4681 3.44 81.1934 3.62133 81.8228 3.984C82.4521 4.34667 82.9428 4.85867 83.2948 5.52C83.6574 6.17067 83.8388 6.93333 83.8388 7.808C83.8388 7.872 83.8334 7.94667 83.8228 8.032C83.8228 8.11733 83.8174 8.19733 83.8068 8.272H76.5908V7.168H83.0068L82.3828 7.552C82.3934 7.008 82.2814 6.52267 82.0468 6.096C81.8121 5.66933 81.4868 5.33867 81.0708 5.104C80.6654 4.85867 80.1908 4.736 79.6468 4.736C79.1134 4.736 78.6388 4.85867 78.2228 5.104C77.8068 5.33867 77.4814 5.67467 77.2468 6.112C77.0121 6.53867 76.8948 7.02933 76.8948 7.584V7.84C76.8948 8.40533 77.0228 8.912 77.2788 9.36C77.5454 9.79733 77.9134 10.1387 78.3828 10.384C78.8521 10.6293 79.3908 10.752 79.9988 10.752C80.5001 10.752 80.9534 10.6667 81.3588 10.496C81.7748 10.3253 82.1374 10.0693 82.4468 9.728L83.2948 10.72C82.9108 11.168 82.4308 11.5093 81.8548 11.744C81.2894 11.9787 80.6548 12.096 79.9508 12.096ZM85.9716 12V3.52H87.4436V5.824L87.2996 5.248C87.5343 4.66133 87.929 4.21333 88.4836 3.904C89.0383 3.59467 89.721 3.44 90.5316 3.44V4.928C90.4676 4.91733 90.4036 4.912 90.3396 4.912C90.2863 4.912 90.233 4.912 90.1796 4.912C89.3583 4.912 88.7076 5.15733 88.2276 5.648C87.7476 6.13867 87.5076 6.848 87.5076 7.776V12H85.9716ZM94.9505 12.096C94.2465 12.096 93.5745 12 92.9345 11.808C92.3052 11.616 91.8092 11.3813 91.4465 11.104L92.0865 9.888C92.4492 10.1333 92.8972 10.3413 93.4305 10.512C93.9638 10.6827 94.5078 10.768 95.0625 10.768C95.7772 10.768 96.2892 10.6667 96.5985 10.464C96.9185 10.2613 97.0785 9.97867 97.0785 9.616C97.0785 9.34933 96.9825 9.14133 96.7905 8.992C96.5985 8.84267 96.3425 8.73067 96.0225 8.656C95.7132 8.58133 95.3665 8.51733 94.9825 8.464C94.5985 8.4 94.2145 8.32533 93.8305 8.24C93.4465 8.144 93.0945 8.016 92.7745 7.856C92.4545 7.68533 92.1985 7.456 92.0065 7.168C91.8145 6.86933 91.7185 6.47467 91.7185 5.984C91.7185 5.472 91.8625 5.024 92.1505 4.64C92.4385 4.256 92.8438 3.96267 93.3665 3.76C93.8998 3.54667 94.5292 3.44 95.2545 3.44C95.8092 3.44 96.3692 3.50933 96.9345 3.648C97.5105 3.776 97.9798 3.96267 98.3425 4.208L97.6865 5.424C97.3025 5.168 96.9025 4.992 96.4865 4.896C96.0705 4.8 95.6545 4.752 95.2385 4.752C94.5665 4.752 94.0652 4.864 93.7345 5.088C93.4038 5.30133 93.2385 5.57867 93.2385 5.92C93.2385 6.208 93.3345 6.432 93.5265 6.592C93.7292 6.74133 93.9852 6.85867 94.2945 6.944C94.6145 7.02933 94.9665 7.104 95.3505 7.168C95.7345 7.22133 96.1185 7.296 96.5025 7.392C96.8865 7.47733 97.2332 7.6 97.5425 7.76C97.8625 7.92 98.1185 8.144 98.3105 8.432C98.5132 8.72 98.6145 9.104 98.6145 9.584C98.6145 10.096 98.4652 10.5387 98.1665 10.912C97.8678 11.2853 97.4465 11.5787 96.9025 11.792C96.3585 11.9947 95.7078 12.096 94.9505 12.096ZM104.166 12.096C103.313 12.096 102.555 11.9093 101.894 11.536C101.233 11.1627 100.71 10.6507 100.326 10C99.9421 9.33867 99.7501 8.592 99.7501 7.76C99.7501 6.91733 99.9421 6.17067 100.326 5.52C100.71 4.86933 101.233 4.36267 101.894 4C102.555 3.62667 103.313 3.44 104.166 3.44C105.009 3.44 105.761 3.62667 106.422 4C107.094 4.36267 107.617 4.86933 107.99 5.52C108.374 6.16 108.566 6.90667 108.566 7.76C108.566 8.60267 108.374 9.34933 107.99 10C107.617 10.6507 107.094 11.1627 106.422 11.536C105.761 11.9093 105.009 12.096 104.166 12.096ZM104.166 10.752C104.71 10.752 105.195 10.6293 105.622 10.384C106.059 10.1387 106.401 9.792 106.646 9.344C106.891 8.88533 107.014 8.35733 107.014 7.76C107.014 7.152 106.891 6.62933 106.646 6.192C106.401 5.744 106.059 5.39733 105.622 5.152C105.195 4.90667 104.71 4.784 104.166 4.784C103.622 4.784 103.137 4.90667 102.71 5.152C102.283 5.39733 101.942 5.744 101.686 6.192C101.43 6.62933 101.302 7.152 101.302 7.76C101.302 8.35733 101.43 8.88533 101.686 9.344C101.942 9.792 102.283 10.1387 102.71 10.384C103.137 10.6293 103.622 10.752 104.166 10.752ZM115.218 3.44C115.912 3.44 116.52 3.57333 117.042 3.84C117.576 4.10667 117.992 4.512 118.29 5.056C118.589 5.6 118.738 6.288 118.738 7.12V12H117.202V7.296C117.202 6.47467 117 5.856 116.594 5.44C116.2 5.024 115.64 4.816 114.914 4.816C114.37 4.816 113.896 4.92267 113.49 5.136C113.085 5.34933 112.77 5.664 112.546 6.08C112.333 6.496 112.226 7.01333 112.226 7.632V12H110.69V3.52H112.162V5.808L111.922 5.2C112.2 4.64533 112.626 4.21333 113.202 3.904C113.778 3.59467 114.45 3.44 115.218 3.44ZM126.845 12V10.208L126.765 9.872V6.816C126.765 6.16533 126.573 5.664 126.189 5.312C125.816 4.94933 125.25 4.768 124.493 4.768C123.992 4.768 123.501 4.85333 123.021 5.024C122.541 5.184 122.136 5.40267 121.805 5.68L121.165 4.528C121.602 4.176 122.125 3.90933 122.733 3.728C123.352 3.536 123.997 3.44 124.669 3.44C125.832 3.44 126.728 3.72267 127.357 4.288C127.986 4.85333 128.301 5.71733 128.301 6.88V12H126.845ZM124.061 12.096C123.432 12.096 122.877 11.9893 122.397 11.776C121.928 11.5627 121.565 11.2693 121.309 10.896C121.053 10.512 120.925 10.08 120.925 9.6C120.925 9.14133 121.032 8.72533 121.245 8.352C121.469 7.97867 121.826 7.68 122.317 7.456C122.818 7.232 123.49 7.12 124.333 7.12H127.021V8.224H124.397C123.629 8.224 123.112 8.352 122.845 8.608C122.578 8.864 122.445 9.17333 122.445 9.536C122.445 9.952 122.61 10.288 122.941 10.544C123.272 10.7893 123.73 10.912 124.317 10.912C124.893 10.912 125.394 10.784 125.821 10.528C126.258 10.272 126.573 9.89867 126.765 9.408L127.069 10.464C126.866 10.9653 126.509 11.3653 125.997 11.664C125.485 11.952 124.84 12.096 124.061 12.096ZM131.144 12V0.127999H132.68V12H131.144ZM140.133 12V0.799999H144.853C146.048 0.799999 147.098 1.03467 148.005 1.504C148.922 1.97333 149.632 2.62933 150.133 3.472C150.645 4.31467 150.901 5.29067 150.901 6.4C150.901 7.50933 150.645 8.48533 150.133 9.328C149.632 10.1707 148.922 10.8267 148.005 11.296C147.098 11.7653 146.048 12 144.853 12H140.133ZM141.733 10.608H144.757C145.685 10.608 146.485 10.432 147.157 10.08C147.84 9.728 148.368 9.23733 148.741 8.608C149.114 7.968 149.301 7.232 149.301 6.4C149.301 5.55733 149.114 4.82133 148.741 4.192C148.368 3.56267 147.84 3.072 147.157 2.72C146.485 2.368 145.685 2.192 144.757 2.192H141.733V10.608ZM156.904 12.096C155.997 12.096 155.197 11.9093 154.504 11.536C153.821 11.1627 153.288 10.6507 152.904 10C152.531 9.34933 152.344 8.60267 152.344 7.76C152.344 6.91733 152.525 6.17067 152.888 5.52C153.261 4.86933 153.768 4.36267 154.408 4C155.059 3.62667 155.789 3.44 156.6 3.44C157.421 3.44 158.147 3.62133 158.776 3.984C159.405 4.34667 159.896 4.85867 160.248 5.52C160.611 6.17067 160.792 6.93333 160.792 7.808C160.792 7.872 160.787 7.94667 160.776 8.032C160.776 8.11733 160.771 8.19733 160.76 8.272H153.544V7.168H159.96L159.336 7.552C159.347 7.008 159.235 6.52267 159 6.096C158.765 5.66933 158.44 5.33867 158.024 5.104C157.619 4.85867 157.144 4.736 156.6 4.736C156.067 4.736 155.592 4.85867 155.176 5.104C154.76 5.33867 154.435 5.67467 154.2 6.112C153.965 6.53867 153.848 7.02933 153.848 7.584V7.84C153.848 8.40533 153.976 8.912 154.232 9.36C154.499 9.79733 154.867 10.1387 155.336 10.384C155.805 10.6293 156.344 10.752 156.952 10.752C157.453 10.752 157.907 10.6667 158.312 10.496C158.728 10.3253 159.091 10.0693 159.4 9.728L160.248 10.72C159.864 11.168 159.384 11.5093 158.808 11.744C158.243 11.9787 157.608 12.096 156.904 12.096ZM163.149 12V2.768C163.149 1.936 163.389 1.27467 163.869 0.783999C164.359 0.282666 165.053 0.0319996 165.949 0.0319996C166.279 0.0319996 166.594 0.0746663 166.893 0.16C167.202 0.234666 167.463 0.357333 167.677 0.528L167.213 1.696C167.053 1.568 166.871 1.472 166.669 1.408C166.466 1.33333 166.253 1.296 166.029 1.296C165.581 1.296 165.239 1.424 165.005 1.68C164.77 1.92533 164.653 2.29333 164.653 2.784V3.92L164.685 4.624V12H163.149ZM161.709 4.784V3.52H167.117V4.784H161.709ZM173.673 12V10.208L173.593 9.872V6.816C173.593 6.16533 173.401 5.664 173.017 5.312C172.644 4.94933 172.078 4.768 171.321 4.768C170.82 4.768 170.329 4.85333 169.849 5.024C169.369 5.184 168.964 5.40267 168.633 5.68L167.993 4.528C168.43 4.176 168.953 3.90933 169.561 3.728C170.18 3.536 170.825 3.44 171.497 3.44C172.66 3.44 173.556 3.72267 174.185 4.288C174.814 4.85333 175.129 5.71733 175.129 6.88V12H173.673ZM170.889 12.096C170.26 12.096 169.705 11.9893 169.225 11.776C168.756 11.5627 168.393 11.2693 168.137 10.896C167.881 10.512 167.753 10.08 167.753 9.6C167.753 9.14133 167.86 8.72533 168.073 8.352C168.297 7.97867 168.654 7.68 169.145 7.456C169.646 7.232 170.318 7.12 171.161 7.12H173.849V8.224H171.225C170.457 8.224 169.94 8.352 169.673 8.608C169.406 8.864 169.273 9.17333 169.273 9.536C169.273 9.952 169.438 10.288 169.769 10.544C170.1 10.7893 170.558 10.912 171.145 10.912C171.721 10.912 172.222 10.784 172.649 10.528C173.086 10.272 173.401 9.89867 173.593 9.408L173.897 10.464C173.694 10.9653 173.337 11.3653 172.825 11.664C172.313 11.952 171.668 12.096 170.889 12.096ZM181.54 12.096C180.814 12.096 180.174 11.9627 179.62 11.696C179.076 11.4293 178.649 11.024 178.34 10.48C178.041 9.92533 177.892 9.232 177.892 8.4V3.52H179.428V8.224C179.428 9.056 179.625 9.68 180.02 10.096C180.425 10.512 180.99 10.72 181.716 10.72C182.249 10.72 182.713 10.6133 183.108 10.4C183.502 10.176 183.806 9.856 184.02 9.44C184.233 9.01333 184.34 8.50133 184.34 7.904V3.52H185.876V12H184.42V9.712L184.66 10.32C184.382 10.8853 183.966 11.3227 183.412 11.632C182.857 11.9413 182.233 12.096 181.54 12.096ZM188.8 12V0.127999H190.336V12H188.8ZM196.399 12.096C195.546 12.096 194.885 11.8667 194.415 11.408C193.946 10.9493 193.711 10.2933 193.711 9.44V1.664H195.247V9.376C195.247 9.83467 195.359 10.1867 195.583 10.432C195.818 10.6773 196.149 10.8 196.575 10.8C197.055 10.8 197.455 10.6667 197.775 10.4L198.255 11.504C198.021 11.7067 197.738 11.856 197.407 11.952C197.087 12.048 196.751 12.096 196.399 12.096ZM192.271 4.784V3.52H197.679V4.784H192.271Z" fill="white"/>
</svg>
