<svg width="18" height="18" viewBox="0 0 18 18" fill="none" xmlns="http://www.w3.org/2000/svg">
<path d="M12.685 11.6996L12.685 11.6997L16.9337 15.9078C16.9339 15.9081 16.9342 15.9083 16.9344 15.9086C17.0292 16.0013 17.0943 16.1202 17.1209 16.2502C17.1477 16.3806 17.1345 16.5159 17.0832 16.6387C17.0319 16.7615 16.9449 16.8659 16.8338 16.9388C16.7227 17.0118 16.5925 17.0501 16.4596 17.0492M12.685 11.6996L16.4614 16.7992M12.685 11.6996C12.6226 11.6378 12.5485 11.5889 12.4672 11.5555C12.386 11.5222 12.2989 11.505 12.2111 11.505C12.1233 11.505 12.0362 11.5222 11.955 11.5555C11.9238 11.5683 11.8936 11.5834 11.8648 11.6006C13.0064 10.4301 13.6464 8.86479 13.6463 7.23362C13.6463 5.56606 12.9773 3.96731 11.7874 2.78894C10.5975 1.61066 8.98429 0.949168 7.30268 0.949219C5.62116 0.949269 4.00804 1.6108 2.81828 2.78905C1.92996 3.66717 1.32442 4.78687 1.07871 6.00653C0.832991 7.2262 0.958236 8.49063 1.43848 9.63963C1.91872 10.7886 2.73223 11.7702 3.77564 12.4606C4.8189 13.1508 6.04522 13.5188 7.29938 13.5183M12.685 11.6996L15.9875 16.8544L11.7372 12.6451C11.6747 12.5833 11.6251 12.5097 11.5911 12.4286L11.8218 12.3321L11.5911 12.4286C11.5572 12.3474 11.5397 12.2604 11.5397 12.1724C11.5397 12.0844 11.5572 11.9974 11.5911 11.9162L11.8218 12.0127L11.5911 11.9162C11.6052 11.8826 11.622 11.8503 11.6412 11.8195C11.0846 12.3389 10.4368 12.7539 9.72942 13.0439C8.959 13.3597 8.13304 13.5209 7.29938 13.5183M16.4596 17.0492L16.4614 16.7992M16.4596 17.0492C16.4603 17.0492 16.4609 17.0492 16.4616 17.0492L16.4614 16.7992M16.4596 17.0492C16.3724 17.049 16.286 17.0319 16.2053 16.9988L16.3002 16.7675M16.4614 16.7992C16.4061 16.7992 16.3513 16.7885 16.3002 16.7675M16.3002 16.7675L16.2053 16.9988C16.124 16.9654 16.05 16.9164 15.9876 16.8545L15.9878 16.8546L16.3002 16.7675ZM7.29938 13.5183C7.29923 13.5183 7.29908 13.5183 7.29893 13.5183L7.29973 13.2683L7.29984 13.5183C7.29969 13.5183 7.29954 13.5183 7.29938 13.5183ZM4.52048 3.11568C5.34288 2.57148 6.31001 2.28085 7.29957 2.28082C8.62624 2.28229 9.89766 2.80489 10.835 3.73321C11.7723 4.66147 12.2991 5.91953 12.3006 7.23123C12.3005 8.20964 12.0075 9.16626 11.4584 9.98017C10.9092 10.7942 10.1283 11.429 9.21426 11.804C8.30017 12.1789 7.2942 12.2771 6.32366 12.0859C5.35313 11.8947 4.46197 11.4228 3.76274 10.7304C3.06354 10.0379 2.58766 9.15599 2.39488 8.19622C2.20212 7.23647 2.30103 6.24163 2.67922 5.33741C3.05742 4.43317 3.69806 3.6599 4.52048 3.11568Z" fill="#003DA5" stroke="#003DA5" stroke-width="0.5"/>
</svg>
